#N canvas 190 48 560 392 10;
#X declare -lib iem_tab;
#X declare -lib tof;
#X declare -lib mrpeach/packOSC;
#X declare -lib mrpeach/udpsend;
#N canvas 425 15 349 190 mapsound 0;
#X text 106 13 MAPA SONORO DO KERNEL;
#N canvas 0 6 788 437 mapCPU 0;
#X text 255 19 CPU;
#X floatatom 54 92 5 0 0 0 - - -;
#X obj 54 56 r cpuFirefox;
#X obj 84 141 autoscale 0.2 0.9;
#X floatatom 84 167 5 0 0 0 - - -;
#X obj 251 142 autoscale 0.2 0.9;
#X floatatom 251 169 5 0 0 0 - - -;
#X obj 84 198 s synthFirefox;
#X obj 251 200 s synthGedit;
#X obj 405 140 autoscale 0.2 0.9;
#X floatatom 405 176 5 0 0 0 - - -;
#X obj 405 201 s synthXorg;
#X obj 221 58 r cpuGedit;
#X obj 375 59 r cpuXorg;
#X floatatom 521 96 5 0 0 0 - - -;
#X floatatom 521 96 5 0 0 0 - - -;
#X floatatom 551 171 5 0 0 0 - - -;
#X obj 521 62 r cpuHald;
#X obj 551 203 s synthHald;
#X floatatom 675 98 5 0 0 0 - - -;
#X obj 707 137 autoscale 0.2 0.9;
#X floatatom 707 174 5 0 0 0 - - -;
#X obj 707 203 s synthFind;
#X obj 675 63 r cpuFind;
#X floatatom 75 240 5 0 0 0 - - -;
#X obj 54 262 > 40;
#X obj 54 287 sel 1;
#X floatatom 242 240 5 0 0 0 - - -;
#X obj 221 262 > 40;
#X obj 221 287 sel 1;
#X obj 221 314 bng 15 250 50 0 empty empty empty 17 7 0 10 -262144
-1 -1;
#X obj 221 344 s sGedit;
#X floatatom 396 240 5 0 0 0 - - -;
#X obj 375 262 > 40;
#X obj 375 287 sel 1;
#X floatatom 542 240 5 0 0 0 - - -;
#X obj 521 262 > 40;
#X obj 521 287 sel 1;
#X obj 521 314 bng 15 250 50 0 empty empty empty 17 7 0 10 -262144
-1 -1;
#X obj 521 344 s sHald;
#X floatatom 696 240 5 0 0 0 - - -;
#X obj 675 262 > 40;
#X obj 675 287 sel 1;
#X floatatom 375 96 5 0 0 0 - - -;
#X floatatom 221 95 5 0 0 0 - - -;
#X obj 552 138 autoscale 0.1 0.9;
#X obj 374 344 s onXorg;
#X obj 435 345 s offXorg;
#X msg 402 312 0;
#X msg 370 314 1;
#X msg 54 327 1;
#X msg 84 327 0;
#X obj 54 375 s onFirefox;
#X obj 129 375 s offFirefox;
#X msg 702 322 0;
#X msg 670 324 1;
#X obj 674 354 s onFind;
#X obj 735 355 s offFind;
#X connect 1 0 3 0;
#X connect 1 0 25 0;
#X connect 2 0 1 0;
#X connect 3 0 4 0;
#X connect 4 0 7 0;
#X connect 5 0 6 0;
#X connect 6 0 8 0;
#X connect 9 0 10 0;
#X connect 10 0 11 0;
#X connect 12 0 44 0;
#X connect 13 0 43 0;
#X connect 14 0 36 0;
#X connect 14 0 45 0;
#X connect 16 0 18 0;
#X connect 17 0 14 0;
#X connect 19 0 20 0;
#X connect 19 0 41 0;
#X connect 20 0 21 0;
#X connect 21 0 22 0;
#X connect 23 0 19 0;
#X connect 24 0 25 1;
#X connect 25 0 26 0;
#X connect 26 0 50 0;
#X connect 26 1 51 0;
#X connect 27 0 28 1;
#X connect 28 0 29 0;
#X connect 29 0 30 0;
#X connect 30 0 31 0;
#X connect 32 0 33 1;
#X connect 33 0 34 0;
#X connect 34 0 49 0;
#X connect 34 1 48 0;
#X connect 35 0 36 1;
#X connect 36 0 37 0;
#X connect 37 0 38 0;
#X connect 38 0 39 0;
#X connect 40 0 41 1;
#X connect 41 0 42 0;
#X connect 42 0 55 0;
#X connect 42 1 54 0;
#X connect 43 0 33 0;
#X connect 43 0 9 0;
#X connect 44 0 5 0;
#X connect 44 0 28 0;
#X connect 45 0 16 0;
#X connect 48 0 47 0;
#X connect 49 0 46 0;
#X connect 50 0 52 0;
#X connect 51 0 53 0;
#X connect 54 0 57 0;
#X connect 55 0 56 0;
#X restore 134 63 pd mapCPU;
#N canvas 0 0 546 321 mapMemoria 0;
#X floatatom 241 89 5 0 0 0 - - -;
#X floatatom 69 99 5 0 0 0 - - -;
#X obj 64 59 r memFirefox;
#X floatatom 160 100 5 0 0 0 - - -;
#X obj 154 58 r memGedit;
#X text 175 34 MEMÓRIA;
#X obj 240 60 r memXorg;
#X obj 259 179 s delayXorg;
#X obj 261 115 autoscale 0.2 0.9;
#X floatatom 262 143 5 0 0 0 - - -;
#X floatatom 381 89 5 0 0 0 - - -;
#X obj 401 115 autoscale 0.2 0.9;
#X floatatom 402 143 5 0 0 0 - - -;
#X obj 380 60 r memGimp;
#X obj 399 179 s delayGimp;
#X connect 0 0 8 0;
#X connect 2 0 1 0;
#X connect 4 0 3 0;
#X connect 6 0 0 0;
#X connect 8 0 9 0;
#X connect 9 0 7 0;
#X connect 10 0 11 0;
#X connect 11 0 12 0;
#X connect 12 0 14 0;
#X connect 13 0 10 0;
#X restore 134 87 pd mapMemoria;
#N canvas 157 6 529 523 mapKernel 0;
#X obj 70 20 r kUser2;
#X obj 18 20 r kUser;
#X obj 156 21 r kSystem;
#X obj 226 21 r kSystem2;
#X obj 307 21 r kIdle;
#X obj 377 21 r kIdle2;
#X floatatom 18 57 10 0 0 0 - - -;
#X floatatom 90 57 10 0 0 0 - - -;
#X floatatom 156 59 10 0 0 0 - - -;
#X floatatom 226 59 10 0 0 0 - - -;
#X floatatom 307 57 10 0 0 0 - - -;
#X floatatom 377 58 10 0 0 0 - - -;
#X obj 18 96 -;
#X obj 156 94 -;
#X obj 307 94 -;
#X floatatom 18 132 5 0 0 0 - - -;
#X floatatom 156 132 5 0 0 0 - - -;
#X floatatom 307 133 5 0 0 0 - - -;
#X floatatom 158 196 5 0 0 0 - - -;
#X obj 18 222 s syn-User;
#X obj 158 230 s syn-System;
#X obj 307 172 s syn-Idle;
#X floatatom 18 424 5 0 0 0 - - -;
#X obj 18 453 sel 1;
#X obj 18 600 bng 15 250 50 0 empty empty empty 17 7 0 10 -262144 -1
-1;
#X msg 18 625 0;
#X obj 18 655 s stopGain;
#X obj 18 567 change 1;
#X obj 45 478 bng 15 250 50 0 empty empty empty 17 7 0 10 -262144 -1
-1;
#X obj 45 535 s startGain;
#X msg 45 505 0.8;
#X obj 18 367 r syn-User;
#X floatatom 18 306 5 0 0 0 - - -;
#X obj 18 337 s synthKUser;
#X obj 18 275 * 1000;
#X floatatom 158 424 5 0 0 0 - - -;
#X obj 158 453 sel 1;
#X obj 158 600 bng 15 250 50 0 empty empty empty 17 7 0 10 -262144
-1 -1;
#X obj 158 567 change 1;
#X obj 185 478 bng 15 250 50 0 empty empty empty 17 7 0 10 -262144
-1 -1;
#X obj 158 367 r syn-System;
#X obj 158 655 s stopGain2;
#X obj 185 535 s synthSystem;
#X msg 158 625 0;
#X msg 185 505 1;
#X floatatom 96 234 5 0 0 0 - - -;
#X obj 96 200 * 2;
#X obj 96 263 s cpuUSER;
#X floatatom 246 204 5 0 0 0 - - -;
#X obj 246 170 * 2;
#X obj 246 233 s cpuSystem;
#X floatatom 406 234 5 0 0 0 - - -;
#X obj 406 263 s cpuIdle;
#X obj 406 200 / 2;
#X text 351 378 Mapa de uso da CPU-KERNEL;
#X obj 18 157 / 100;
#X floatatom 19 180 5 0 0 0 - - -;
#X obj 158 157 / 100;
#X obj 18 390 < 0.6;
#X obj 158 389 < 0.2;
#X connect 0 0 7 0;
#X connect 1 0 6 0;
#X connect 2 0 8 0;
#X connect 3 0 9 0;
#X connect 4 0 10 0;
#X connect 5 0 11 0;
#X connect 6 0 12 0;
#X connect 7 0 12 1;
#X connect 8 0 13 0;
#X connect 9 0 13 1;
#X connect 10 0 14 0;
#X connect 11 0 14 1;
#X connect 12 0 15 0;
#X connect 13 0 16 0;
#X connect 14 0 17 0;
#X connect 15 0 46 0;
#X connect 15 0 55 0;
#X connect 16 0 49 0;
#X connect 16 0 57 0;
#X connect 17 0 21 0;
#X connect 17 0 53 0;
#X connect 18 0 20 0;
#X connect 22 0 23 0;
#X connect 23 0 27 0;
#X connect 23 1 28 0;
#X connect 24 0 25 0;
#X connect 25 0 26 0;
#X connect 27 0 24 0;
#X connect 28 0 30 0;
#X connect 30 0 29 0;
#X connect 31 0 58 0;
#X connect 32 0 33 0;
#X connect 34 0 32 0;
#X connect 35 0 36 0;
#X connect 36 0 38 0;
#X connect 36 1 39 0;
#X connect 37 0 43 0;
#X connect 38 0 37 0;
#X connect 39 0 44 0;
#X connect 40 0 59 0;
#X connect 43 0 41 0;
#X connect 44 0 42 0;
#X connect 45 0 47 0;
#X connect 46 0 45 0;
#X connect 48 0 50 0;
#X connect 49 0 48 0;
#X connect 51 0 52 0;
#X connect 53 0 51 0;
#X connect 55 0 56 0;
#X connect 56 0 19 0;
#X connect 56 0 34 0;
#X connect 57 0 18 0;
#X connect 58 0 22 0;
#X connect 59 0 35 0;
#X restore 134 40 pd mapKernel;
#X restore 281 120 pd mapsound;
#X obj -112 -55 bng 30 250 50 0 empty empty empty 17 7 0 10 -4034 -13330
-1;
#X obj -55 -54 bng 30 250 50 0 empty empty empty 17 7 0 10 -258113
-1 -1;
#X text 120 -73 DESLIGA;
#X text 74 -73 LIGA;
#X obj 76 -54 bng 30 250 50 0 empty empty empty 17 7 0 10 -4034 -13330
-1;
#X obj 127 -53 bng 30 250 50 0 empty empty empty 17 7 0 10 -258113
-1 -1;
#X text -54 -73 DESLIGA;
#X text -112 -75 LIGA;
#X text -54 -73 DESLIGA;
#X text -112 -75 LIGA;
#X text -54 -73 DESLIGA;
#X text -112 -75 LIGA;
#X text -91 -93 PROCESSOS;
#X text -145 167 EMOTIONAL KERNEL PANIC;
#X text 283 88 CONTROLES;
#N canvas 177 15 473 458 statusP 0;
#X floatatom 62 69 5 0 0 0 - - -;
#X floatatom 189 70 5 0 0 0 - - -;
#X obj 62 24 r randomProcessos;
#X obj 189 25 r statusProcessos;
#X obj 226 380 s on1;
#X obj 12 379 s off1;
#X obj 277 381 s on2;
#X obj 68 379 s off2;
#X obj 324 382 s on3;
#X obj 117 380 s off3;
#X floatatom 111 163 5 0 0 0 - - -;
#X floatatom 75 269 5 0 0 0 - - -;
#X obj 75 338 bng 15 250 50 0 empty empty empty 17 7 0 10 -262144 -1
-1;
#X obj 98 338 bng 15 250 50 0 empty empty empty 17 7 0 10 -262144 -1
-1;
#X obj 121 338 bng 15 250 50 0 empty empty empty 17 7 0 10 -262144
-1 -1;
#X text 89 283 OFF;
#X text 258 279 ON;
#X obj 228 334 bng 15 250 50 0 empty empty empty 17 7 0 10 -262144
-1 -1;
#X obj 251 334 bng 15 250 50 0 empty empty empty 17 7 0 10 -262144
-1 -1;
#X obj 274 334 bng 15 250 50 0 empty empty empty 17 7 0 10 -262144
-1 -1;
#X obj 125 108 !=;
#X obj 47 96 i;
#X floatatom 47 127 5 0 0 0 - - -;
#X obj 174 99 i;
#X floatatom 174 126 5 0 0 0 - - -;
#X obj 328 13 bng 15 250 50 0 empty empty empty 17 7 0 10 -262144 -1
-1;
#X obj 328 66 s start;
#X obj 4 69 r start;
#X obj 126 72 r start;
#X msg 356 12 stop;
#X obj 328 -10 r startALL;
#X obj 328 41 metro 2000;
#X obj 110 137 int;
#X obj 98 218 int;
#X obj 174 171 sel 1;
#X obj 161 202 bng 15 250 50 0 empty empty empty 17 7 0 10 -262144
-1 -1;
#X obj 397 -9 r stopALL;
#X obj 75 301 select 1 2 3 4;
#X obj 228 300 select 1 2 3 4;
#X obj 151 338 bng 15 250 50 0 empty empty empty 17 7 0 10 -262144
-1 -1;
#X obj 304 334 bng 15 250 50 0 empty empty empty 17 7 0 10 -262144
-1 -1;
#X obj 162 379 s off4;
#X obj 364 382 s on4;
#N canvas 0 0 637 300 states 0;
#X msg 35 94 1;
#X msg 142 97 1;
#X msg 253 99 1;
#X msg 365 99 1;
#X msg 473 101 1;
#X msg 525 102 0;
#X msg 415 98 0;
#X msg 308 100 0;
#X msg 193 99 0;
#X msg 81 95 0;
#X obj 35 134 s state01;
#X obj 142 134 s state02;
#X obj 253 134 s state03;
#X text 182 13 Estados dos Processos // liga-desliga mandalas;
#X obj 365 134 s state04;
#X obj 473 134 s state05;
#X obj 691 73 r pre;
#X msg 691 105 0;
#X obj 691 136 s offALL;
#X obj 555 189 r offALL;
#X obj 35 60 r on1;
#X obj 81 60 r off1;
#X obj 142 61 r on2;
#X obj 192 62 r off2;
#X obj 253 63 r on3;
#X obj 308 62 r off3;
#X obj 365 63 r on4;
#X obj 415 64 r off4;
#X obj 473 65 r on5;
#X obj 525 66 r off5;
#X connect 0 0 10 0;
#X connect 1 0 11 0;
#X connect 2 0 12 0;
#X connect 3 0 14 0;
#X connect 4 0 15 0;
#X connect 5 0 15 0;
#X connect 6 0 14 0;
#X connect 7 0 12 0;
#X connect 8 0 11 0;
#X connect 9 0 10 0;
#X connect 16 0 17 0;
#X connect 17 0 18 0;
#X connect 19 0 10 0;
#X connect 19 0 11 0;
#X connect 19 0 12 0;
#X connect 19 0 14 0;
#X connect 19 0 15 0;
#X connect 20 0 0 0;
#X connect 21 0 9 0;
#X connect 22 0 1 0;
#X connect 23 0 8 0;
#X connect 24 0 2 0;
#X connect 25 0 7 0;
#X connect 26 0 3 0;
#X connect 27 0 6 0;
#X connect 28 0 4 0;
#X connect 29 0 5 0;
#X restore 342 181 pd states;
#X text 323 156 status processos;
#X connect 0 0 21 1;
#X connect 1 0 23 1;
#X connect 2 0 0 0;
#X connect 3 0 1 0;
#X connect 10 0 34 0;
#X connect 11 0 37 0;
#X connect 12 0 5 0;
#X connect 13 0 7 0;
#X connect 14 0 9 0;
#X connect 17 0 4 0;
#X connect 18 0 6 0;
#X connect 19 0 8 0;
#X connect 20 0 32 0;
#X connect 21 0 22 0;
#X connect 22 0 20 0;
#X connect 22 0 33 1;
#X connect 23 0 24 0;
#X connect 24 0 20 1;
#X connect 24 0 38 0;
#X connect 25 0 31 0;
#X connect 27 0 21 0;
#X connect 28 0 23 0;
#X connect 29 0 31 0;
#X connect 30 0 25 0;
#X connect 31 0 26 0;
#X connect 32 0 10 0;
#X connect 33 0 11 0;
#X connect 34 0 35 0;
#X connect 35 0 22 0;
#X connect 35 0 33 0;
#X connect 36 0 29 0;
#X connect 37 0 12 0;
#X connect 37 1 13 0;
#X connect 37 2 14 0;
#X connect 37 3 39 0;
#X connect 38 0 17 0;
#X connect 38 1 18 0;
#X connect 38 2 19 0;
#X connect 38 3 40 0;
#X connect 39 0 41 0;
#X connect 40 0 42 0;
#X restore 281 144 pd statusP;
#X text 281 -72 DESLIGA;
#X text 241 -73 LIGA;
#X obj 243 -52 bng 30 250 50 0 empty empty empty 17 7 0 10 -4034 -13330
-1;
#X obj 288 -52 bng 30 250 50 0 empty empty empty 17 7 0 10 -258113
-1 -1;
#X text -146 178 Mapeamento do Kernel Linux Processamento de Samples
e Imagens;
#X text -146 207 RICARDO BRAZILEIRO - rbrazileiro at gmail dot com
;
#X text 52 -127 EMOTIONAL KERNEL PANIC;
#X text 249 -91 ENVIA DADOS;
#N canvas 44 6 723 523 samples 0;
#X obj 71 71 syn-xfm;
#X obj 337 618 dac~;
#X obj 337 533 st-delayfb;
#X obj 71 0 r synthXorg;
#X obj 336 313 st-phaser;
#X obj 337 418 st-flanger;
#X obj 337 102 perk-bassdrum;
#X obj 337 52 bng 15 250 50 0 empty empty empty 17 7 0 10 -262144 -1
-1;
#X obj 337 21 r synthSystem;
#X obj 71 34 * 800;
#X obj 72 227 st-FFTnoisereduce;
#X obj -121 69 syn-cz10;
#X obj -121 27 r synthKUser;
#X msg -117 488 \; pd dsp 1;
#X msg -25 488 \; pd dsp 0;
#X text -96 521 ON;
#X text -8 521 OFF;
#X text -66 461 AUDIO;
#X obj 132 325 mimosa-sampler;
#X connect 0 0 10 0;
#X connect 2 0 1 0;
#X connect 2 0 1 1;
#X connect 3 0 9 0;
#X connect 4 0 5 0;
#X connect 5 0 2 0;
#X connect 6 0 4 0;
#X connect 7 0 6 0;
#X connect 8 0 7 0;
#X connect 9 0 0 0;
#X connect 10 0 4 0;
#X connect 11 0 10 0;
#X connect 12 0 11 0;
#X connect 18 0 1 0;
#X connect 18 0 1 1;
#X restore 282 171 pd samples;
#N canvas 130 151 621 340 kernel 0;
#X obj 241 -168 bng 15 250 50 0 empty empty empty 17 7 0 10 -262144
-1 -1;
#X floatatom 342 -170 5 0 0 0 - - -;
#X msg 281 -170 stop;
#X obj 174 -191 inlet;
#X obj 306 -219 inlet;
#X obj 279 -104 bng 15 250 50 0 empty empty empty 17 7 0 10 -262144
-1 -1;
#X obj 228 -140 s hald;
#X obj 219 -70 delay 200;
#X obj 291 -70 delay 200;
#N canvas 0 6 788 502 kernel1 0;
#X obj 162 5 bng 15 250 50 0 empty empty empty 17 7 0 10 -262144 -1
-1;
#X obj 162 79 shell;
#X obj 162 -22 inlet;
#X floatatom 60 202 5 0 0 0 - - -;
#X floatatom 118 202 5 0 0 0 - - -;
#X floatatom 168 202 5 0 0 0 - - -;
#X floatatom 225 202 10 0 0 0 - - -;
#X floatatom 298 202 5 0 0 0 - - -;
#X floatatom 358 202 5 0 0 0 - - -;
#X floatatom 408 202 5 0 0 0 - - -;
#X text 62 224 USER;
#X text 120 224 NICE;
#X text 170 224 SYSTEM;
#X text 230 224 IDLE;
#X text 300 224 IOWAIT;
#X text 360 224 IRQ;
#X text 410 224 SOFTIRQ;
#X text -117 402 USER - Normal Processes executing in user mode NICE
- niced processes executing in user mode SYSTEM - processes executing
in kernel mode IDLE - Twidding thumbs IOwAIT - waiting for I/O to complete
IRQ - servicing interrupts SOFTIRQ: servicing softirqs;
#X obj 162 147 unpack s f f f f f f f;
#X obj 162 110 pack s f f f f f f f;
#X text 349 449 INFORMAÇÔES DA CPU RICARDO BRAZILEIRO;
#X obj 60 254 s kUser;
#X obj 168 253 s kSystem;
#X obj 298 253 s kIOwait;
#X obj 358 253 s kIRQ;
#X obj 572 5 bng 15 250 50 0 empty empty empty 17 7 0 10 -262144 -1
-1;
#X obj 572 79 shell;
#X msg 572 36 cat /proc/stat |grep "cpu ";
#X floatatom 470 202 5 0 0 0 - - -;
#X floatatom 528 202 5 0 0 0 - - -;
#X floatatom 578 202 5 0 0 0 - - -;
#X floatatom 635 202 10 0 0 0 - - -;
#X floatatom 708 202 5 0 0 0 - - -;
#X floatatom 768 202 5 0 0 0 - - -;
#X floatatom 818 202 5 0 0 0 - - -;
#X text 472 224 USER;
#X text 530 224 NICE;
#X text 580 224 SYSTEM;
#X text 640 224 IDLE;
#X text 710 224 IOWAIT;
#X text 770 224 IRQ;
#X text 820 224 SOFTIRQ;
#X obj 572 147 unpack s f f f f f f f;
#X obj 572 110 pack s f f f f f f f;
#X obj 238 -12 delay 100;
#X obj 470 254 s kUser2;
#X obj 578 253 s kSystem2;
#X obj 708 253 s kIOwait2;
#X obj 774 253 s kIRQ2;
#X obj 233 253 s kIdle;
#X obj 651 253 s kIdle2;
#X msg 162 36 cat /proc/stat |egrep "cpu ";
#X connect 0 0 51 0;
#X connect 0 0 44 0;
#X connect 1 0 19 0;
#X connect 2 0 0 0;
#X connect 3 0 21 0;
#X connect 5 0 22 0;
#X connect 6 0 49 0;
#X connect 7 0 23 0;
#X connect 8 0 24 0;
#X connect 18 1 3 0;
#X connect 18 2 4 0;
#X connect 18 3 5 0;
#X connect 18 4 6 0;
#X connect 18 5 7 0;
#X connect 18 6 8 0;
#X connect 18 7 9 0;
#X connect 19 0 18 0;
#X connect 25 0 27 0;
#X connect 26 0 43 0;
#X connect 27 0 26 0;
#X connect 28 0 45 0;
#X connect 30 0 46 0;
#X connect 31 0 50 0;
#X connect 32 0 47 0;
#X connect 33 0 48 0;
#X connect 42 1 28 0;
#X connect 42 2 29 0;
#X connect 42 3 30 0;
#X connect 42 4 31 0;
#X connect 42 5 32 0;
#X connect 42 6 33 0;
#X connect 42 7 34 0;
#X connect 43 0 42 0;
#X connect 44 0 25 0;
#X connect 51 0 1 0;
#X restore 219 -30 pd kernel1;
#N canvas 3 45 723 424 kernel2 0;
#X obj 252 15 bng 15 250 50 0 empty empty empty 17 7 0 10 -262144 -1
-1;
#X obj 252 89 shell;
#X obj 252 121 pack f s f f s s s s f f s s;
#X obj 252 157 unpack f s f f s s s s f f s s;
#X floatatom 25 208 5 0 0 0 - - -;
#X floatatom 511 215 5 0 0 0 - - -;
#X floatatom 555 216 5 0 0 0 - - -;
#X symbolatom 604 218 10 0 0 0 - - -;
#X text 510 232 CPUINFO;
#X text 560 231 MEMORIA;
#X symbolatom 81 209 10 0 0 0 - - -;
#X floatatom 147 210 5 0 0 0 - - -;
#X floatatom 186 210 5 0 0 0 - - -;
#X symbolatom 224 211 10 0 0 0 - - -;
#X symbolatom 292 211 10 0 0 0 - - -;
#X symbolatom 363 211 10 0 0 0 - - -;
#X symbolatom 431 211 10 0 0 0 - - -;
#X obj 252 -12 inlet;
#X obj 475 257 s cpuXorg;
#X obj 555 257 s memXorg;
#X msg 252 46 top -n 1 -b |grep Xorg;
#X obj 331 88 print;
#X connect 0 0 20 0;
#X connect 1 0 2 0;
#X connect 1 0 21 0;
#X connect 2 0 3 0;
#X connect 3 0 4 0;
#X connect 3 1 10 0;
#X connect 3 2 11 0;
#X connect 3 3 12 0;
#X connect 3 4 13 0;
#X connect 3 5 14 0;
#X connect 3 6 15 0;
#X connect 3 7 16 0;
#X connect 3 8 5 0;
#X connect 3 9 6 0;
#X connect 3 11 7 0;
#X connect 5 0 18 0;
#X connect 6 0 19 0;
#X connect 17 0 0 0;
#X connect 20 0 1 0;
#X restore 291 -29 pd kernel2;
#X obj 276 -136 metro 1000;
#N canvas 23 81 765 427 kernel3 0;
#X obj 252 15 bng 15 250 50 0 empty empty empty 17 7 0 10 -262144 -1
-1;
#X obj 252 -12 inlet;
#X symbolatom 188 196 10 0 0 0 - - -;
#X obj 315 99 print;
#X obj 252 89 shell;
#X obj 252 157 unpack s s s s;
#X symbolatom 260 198 10 0 0 0 - - -;
#X obj 252 121 pack s f;
#X text 523 334 |:>PO)(90(*&$$#@@!"!''"''""!@++==___-- [[ªªºººªªºººº§:>>
\, mZzz||];
#X msg 253 44 top -n 1 -b |grep Cpu;
#X connect 0 0 9 0;
#X connect 1 0 0 0;
#X connect 4 0 3 0;
#X connect 5 0 2 0;
#X connect 5 1 6 0;
#X connect 7 0 5 0;
#X connect 9 0 4 0;
#X restore 373 -28 pd kernel3;
#X obj 342 -198 r emotional;
#X connect 0 0 6 0;
#X connect 0 0 11 0;
#X connect 1 0 11 1;
#X connect 2 0 11 0;
#X connect 3 0 0 0;
#X connect 4 0 2 0;
#X connect 5 0 7 0;
#X connect 7 0 9 0;
#X connect 7 0 8 0;
#X connect 8 0 10 0;
#X connect 11 0 5 0;
#X connect 13 0 1 0;
#X restore 76 1 pd kernel;
#N canvas 0 6 623 523 process 0;
#X obj 52 125 shell;
#X floatatom -49 267 5 0 0 0 - - -;
#X msg 19 64 ps -e |grep gedit;
#X symbolatom -6 267 10 0 0 0 - - -;
#X obj -45 234 unpack f s s s;
#X symbolatom 68 269 10 0 0 0 - - -;
#X obj -45 210 pack f s s s;
#X text -156 209 empacota os dados;
#X text -45 284 ID;
#X text 3 285 TIME;
#X text 77 287 PROGRAMA;
#X obj -73 496 s mapProcessos;
#X obj 72 -180 bng 15 250 50 0 empty empty empty 17 7 0 10 -262144
-1 -1;
#X floatatom 29 -63 5 0 0 0 - - -;
#X obj 8 8 bng 15 250 50 0 empty empty empty 17 7 0 10 -262144 -1 -1
;
#X obj 33 11 bng 15 250 50 0 empty empty empty 17 7 0 10 -262144 -1
-1;
#X obj 58 12 bng 15 250 50 0 empty empty empty 17 7 0 10 -262144 -1
-1;
#X msg 107 -179 stop;
#X obj 68 -213 inlet;
#X obj 123 -212 inlet;
#X text 233 -213 PROCESSOS;
#X obj 48 405 sel gedit;
#X obj -75 435 bng 15 250 50 0 empty empty empty 17 7 0 10 -262144
-1 -1;
#X obj 49 437 bng 15 250 50 0 empty empty empty 17 7 0 10 -262144 -1
-1;
#X obj 126 433 bng 15 250 50 0 empty empty empty 17 7 0 10 -262144
-1 -1;
#X msg -124 63 ps -e |grep firefox;
#X obj -75 405 sel firefox;
#X obj 125 405 sel gnome-terminal;
#X obj 87 497 s statusProcessos;
#X obj 85 -63 s randomProcessos;
#X msg -82 460 1;
#X msg 36 462 2;
#X msg 119 463 3;
#X obj 168 -187 s startALL;
#X obj 35 333 symbol;
#X obj 70 233 delay 300;
#X obj 249 -187 s stopALL;
#X msg 289 63 ps -e |grep gimp;
#X obj 32 -90 random 5;
#X obj 31 -32 select 1 2 3 4;
#X obj 246 433 bng 15 250 50 0 empty empty empty 17 7 0 10 -262144
-1 -1;
#X msg 239 463 4;
#X obj 81 5 bng 15 250 50 0 empty empty empty 17 7 0 10 -262144 -1
-1;
#X obj 245 405 sel gimp;
#X obj 32 -122 metro 1000;
#X msg 153 63 ps -e |grep terminal;
#X connect 0 0 6 0;
#X connect 0 1 35 0;
#X connect 2 0 0 0;
#X connect 4 0 1 0;
#X connect 4 2 3 0;
#X connect 4 3 5 0;
#X connect 5 0 34 1;
#X connect 6 0 4 0;
#X connect 12 0 33 0;
#X connect 12 0 44 0;
#X connect 13 0 29 0;
#X connect 13 0 39 0;
#X connect 14 0 25 0;
#X connect 15 0 2 0;
#X connect 16 0 45 0;
#X connect 17 0 36 0;
#X connect 17 0 44 0;
#X connect 18 0 12 0;
#X connect 19 0 17 0;
#X connect 21 0 23 0;
#X connect 22 0 30 0;
#X connect 23 0 31 0;
#X connect 24 0 32 0;
#X connect 25 0 0 0;
#X connect 26 0 22 0;
#X connect 27 0 24 0;
#X connect 30 0 11 0;
#X connect 30 0 28 0;
#X connect 31 0 11 0;
#X connect 31 0 28 0;
#X connect 32 0 11 0;
#X connect 32 0 28 0;
#X connect 34 0 26 0;
#X connect 34 0 21 0;
#X connect 34 0 27 0;
#X connect 34 0 43 0;
#X connect 35 0 34 0;
#X connect 37 0 0 0;
#X connect 38 0 13 0;
#X connect 39 0 14 0;
#X connect 39 1 15 0;
#X connect 39 2 16 0;
#X connect 39 3 42 0;
#X connect 40 0 41 0;
#X connect 41 0 28 0;
#X connect 41 0 11 0;
#X connect 42 0 37 0;
#X connect 43 0 40 0;
#X connect 44 0 38 0;
#X connect 45 0 0 0;
#X restore -112 -1 pd process;
#X text 92 -93 KERNEL;
#N canvas 360 95 440 327 panic 0;
#X obj -185 84 import mrpeach/packOSC;
#X obj -185 61 import mrpeach/udpsend;
#X text -184 13 sending OSC messages;
#X obj -142 281 udpsend;
#X msg -137 147 disconnect;
#X obj -202 147 loadbang;
#X obj -124 245 packOSC;
#X obj -124 215 r osc_packer;
#X obj -224 106 inlet;
#X obj -224 131 bng 15 250 50 0 empty empty empty 17 7 0 10 -262144
-1 -1;
#X obj -38 99 inlet;
#X obj -38 123 bng 15 250 50 0 empty empty empty 17 7 0 10 -262144
-1 -1;
#N canvas 424 131 814 321 sCPU 0;
#X floatatom 248 124 5 0 0 0 - - -;
#X floatatom 248 124 5 0 0 0 - - -;
#X floatatom -30 117 5 0 0 0 - - -;
#X obj 249 197 s osc_packer;
#X obj -30 193 s osc_packer;
#X obj 105 196 s osc_packer;
#X msg -30 161 send /cpu1 \$1;
#X msg 105 162 send /cpu2 \$1;
#X msg 249 164 send /cpu3 \$1;
#X obj 372 198 s osc_packer;
#X msg 372 166 send /cpu4 \$1;
#X floatatom 372 124 5 0 0 0 - - -;
#X floatatom 372 124 5 0 0 0 - - -;
#X obj 372 84 r cpuHald;
#X obj 478 183 bng 15 250 50 0 empty empty empty 17 7 0 10 -262144
-1 -1;
#X obj 487 206 s on5;
#X floatatom 478 119 5 0 0 0 - - -;
#X obj 478 150 sel 1;
#X obj 602 198 s osc_packer;
#X msg 602 166 send /cpu5 \$1;
#X obj 478 92 >= 3;
#X obj 478 261 bng 15 250 50 0 empty empty empty 17 7 0 10 -262144
-1 -1;
#X obj 478 290 s off5;
#X obj 478 236 delay 5000;
#X obj -30 81 r cpuUSER;
#X obj 248 84 r cpuXorg;
#X obj 105 82 r cpuSystem;
#X floatatom 105 116 5 0 0 0 - - -;
#X obj 602 84 r cpuIdle;
#X floatatom 602 120 5 0 0 0 - - -;
#X connect 0 0 8 0;
#X connect 2 0 6 0;
#X connect 6 0 4 0;
#X connect 7 0 5 0;
#X connect 8 0 3 0;
#X connect 10 0 9 0;
#X connect 11 0 10 0;
#X connect 11 0 20 0;
#X connect 13 0 11 0;
#X connect 14 0 15 0;
#X connect 14 0 23 0;
#X connect 16 0 17 0;
#X connect 17 0 14 0;
#X connect 19 0 18 0;
#X connect 20 0 16 0;
#X connect 21 0 22 0;
#X connect 23 0 21 0;
#X connect 24 0 2 0;
#X connect 25 0 0 0;
#X connect 26 0 27 0;
#X connect 27 0 7 0;
#X connect 28 0 29 0;
#X connect 29 0 19 0;
#X restore 98 90 pd sCPU;
#N canvas 42 109 758 394 sSamples 0;
#X obj 12 -179 r sFirefox;
#X obj 143 -178 r sGedit;
#X obj 251 -178 r sTerminal;
#X obj 13 -84 s osc_packer;
#X msg 12 -116 send /sFirefox \$1;
#X obj 144 -82 s osc_packer;
#X msg 143 -114 send /sGedit \$1;
#X obj 254 -82 s osc_packer;
#X msg 253 -114 send /sTerminal \$1;
#X obj 383 -82 s osc_packer;
#X obj 382 -178 r sGimp;
#X msg 382 -114 send /sGimp \$1;
#X obj 13 46 s osc_packer;
#X floatatom 12 -17 5 0 0 0 - - -;
#X obj 164 48 s osc_packer;
#X floatatom 163 -15 5 0 0 0 - - -;
#X obj 294 48 s osc_packer;
#X floatatom 293 -15 5 0 0 0 - - -;
#X obj 413 48 s osc_packer;
#X floatatom 412 -15 5 0 0 0 - - -;
#X obj 12 -49 r synthfirefox;
#X obj 163 -48 r synthGedit;
#X obj 291 -48 r synthXorg;
#X obj 412 -48 r delayXorg;
#X obj 543 48 s osc_packer;
#X floatatom 542 -15 5 0 0 0 - - -;
#X obj 542 -48 r delayGimp;
#X msg 12 14 send /synthFirefox \$1;
#X msg 161 16 send /synthGedit \$1;
#X msg 293 16 send /synthXorg \$1;
#X msg 412 16 send /delayXorg \$1;
#X msg 542 16 send /delayGimp \$1;
#X obj 13 188 s osc_packer;
#X floatatom 12 125 5 0 0 0 - - -;
#X obj 12 92 r synthHald;
#X msg 12 156 send /synthHald \$1;
#X obj 163 188 s osc_packer;
#X floatatom 162 125 5 0 0 0 - - -;
#X obj 162 92 r synthFind;
#X msg 162 156 send /synthFind \$1;
#X obj 12 -145 bng 15 250 50 0 empty empty empty 17 7 0 10 -262144
-1 -1;
#X obj 142 -145 bng 15 250 50 0 empty empty empty 17 7 0 10 -262144
-1 -1;
#X obj 252 -143 bng 15 250 50 0 empty empty empty 17 7 0 10 -262144
-1 -1;
#X obj 382 -145 bng 15 250 50 0 empty empty empty 17 7 0 10 -262144
-1 -1;
#X connect 0 0 40 0;
#X connect 1 0 41 0;
#X connect 2 0 42 0;
#X connect 4 0 3 0;
#X connect 6 0 5 0;
#X connect 8 0 7 0;
#X connect 10 0 43 0;
#X connect 11 0 9 0;
#X connect 13 0 27 0;
#X connect 15 0 28 0;
#X connect 17 0 29 0;
#X connect 19 0 30 0;
#X connect 20 0 13 0;
#X connect 21 0 15 0;
#X connect 22 0 17 0;
#X connect 23 0 19 0;
#X connect 25 0 31 0;
#X connect 26 0 25 0;
#X connect 27 0 12 0;
#X connect 28 0 14 0;
#X connect 29 0 16 0;
#X connect 30 0 18 0;
#X connect 31 0 24 0;
#X connect 33 0 35 0;
#X connect 34 0 33 0;
#X connect 35 0 32 0;
#X connect 37 0 39 0;
#X connect 38 0 37 0;
#X connect 39 0 36 0;
#X connect 40 0 4 0;
#X connect 41 0 6 0;
#X connect 42 0 8 0;
#X connect 43 0 11 0;
#X restore 97 63 pd sSamples;
#N canvas 0 0 623 391 sProcess 0;
#X obj 79 154 s osc_packer;
#X obj 80 67 r on1;
#X msg 79 122 send /on1 \$1;
#X obj 169 156 s osc_packer;
#X obj 259 156 s osc_packer;
#X obj 80 298 s osc_packer;
#X obj 180 298 s osc_packer;
#X obj 280 298 s osc_packer;
#X obj 280 203 r off3;
#X msg 280 266 send /off3 \$1;
#X obj 79 99 bng 15 250 50 0 empty empty empty 17 7 0 10 -262144 -1
-1;
#X obj 169 99 bng 15 250 50 0 empty empty empty 17 7 0 10 -262144 -1
-1;
#X obj 259 99 bng 15 250 50 0 empty empty empty 17 7 0 10 -262144 -1
-1;
#X obj 80 235 bng 15 250 50 0 empty empty empty 17 7 0 10 -262144 -1
-1;
#X obj 180 235 bng 15 250 50 0 empty empty empty 17 7 0 10 -262144
-1 -1;
#X obj 280 235 bng 15 250 50 0 empty empty empty 17 7 0 10 -262144
-1 -1;
#X obj 170 67 r on2;
#X obj 260 67 r on3;
#X obj 80 203 r off1;
#X obj 180 203 r off2;
#X msg 169 124 send /on2 \$1;
#X msg 259 125 send /on3 \$1;
#X msg 80 266 send /off1 \$1;
#X msg 180 266 send /off2 \$1;
#X obj 380 298 s osc_packer;
#X obj 380 235 bng 15 250 50 0 empty empty empty 17 7 0 10 -262144
-1 -1;
#X msg 380 266 send /off4 \$1;
#X obj 380 203 r off4;
#X obj 353 156 s osc_packer;
#X obj 353 99 bng 15 250 50 0 empty empty empty 17 7 0 10 -262144 -1
-1;
#X obj 354 67 r on4;
#X msg 353 124 send /on4 \$1;
#X obj 463 156 s osc_packer;
#X obj 463 99 bng 15 250 50 0 empty empty empty 17 7 0 10 -262144 -1
-1;
#X obj 464 67 r on5;
#X msg 463 124 send /on5 \$1;
#X obj 479 298 s osc_packer;
#X obj 479 235 bng 15 250 50 0 empty empty empty 17 7 0 10 -262144
-1 -1;
#X obj 479 203 r off5;
#X msg 479 268 send /off5 \$1;
#X connect 1 0 10 0;
#X connect 2 0 0 0;
#X connect 8 0 15 0;
#X connect 9 0 7 0;
#X connect 10 0 2 0;
#X connect 11 0 20 0;
#X connect 12 0 21 0;
#X connect 13 0 22 0;
#X connect 14 0 23 0;
#X connect 15 0 9 0;
#X connect 16 0 11 0;
#X connect 17 0 12 0;
#X connect 18 0 13 0;
#X connect 19 0 14 0;
#X connect 20 0 3 0;
#X connect 21 0 4 0;
#X connect 22 0 5 0;
#X connect 23 0 6 0;
#X connect 25 0 26 0;
#X connect 26 0 24 0;
#X connect 27 0 25 0;
#X connect 29 0 31 0;
#X connect 30 0 29 0;
#X connect 31 0 28 0;
#X connect 33 0 35 0;
#X connect 34 0 33 0;
#X connect 35 0 32 0;
#X connect 37 0 39 0;
#X connect 38 0 37 0;
#X connect 39 0 36 0;
#X restore 98 115 pd sProcess;
#X msg -202 176 connect localhost 9002;
#X connect 4 0 3 0;
#X connect 5 0 15 0;
#X connect 6 0 3 0;
#X connect 7 0 6 0;
#X connect 8 0 9 0;
#X connect 9 0 15 0;
#X connect 10 0 11 0;
#X connect 11 0 4 0;
#X connect 15 0 3 0;
#X restore 243 2 pd panic;
#X connect 1 0 27 0;
#X connect 2 0 27 1;
#X connect 5 0 26 0;
#X connect 6 0 26 1;
#X connect 19 0 29 0;
#X connect 20 0 29 1;
