#N canvas 624 77 560 430 10;
#X declare -lib iem_tab;
#X declare -lib tof;
#X declare -lib iem_tab;
#X declare -lib tof;
#X declare -lib iem_tab;
#X declare -lib tof;
#X declare -lib iem_tab;
#X declare -lib tof;
#X declare -lib iem_tab;
#X declare -lib tof;
#X declare -lib mrpeach/routeOSC;
#X declare -lib mrpeach/udpreceive;
#X declare -lib mrpeach/unpackOSC;
#N canvas 354 116 344 390 mapsound 0;
#X obj 47 69 r mapProcessos;
#X floatatom 47 98 5 0 0 0 - - -;
#X obj 38 182 bng 15 250 50 0 empty empty empty 17 7 0 10 -262144 -1
-1;
#X obj 78 184 bng 15 250 50 0 empty empty empty 17 7 0 10 -262144 -1
-1;
#X obj 119 186 bng 15 250 50 0 empty empty empty 17 7 0 10 -262144
-1 -1;
#X text 36 204 FIREFOX;
#X text 87 204 GEDIT;
#X text 106 13 MAPA SONORO DO KERNEL;
#X text 58 35 PROCESSOS;
#X obj 19 238 s sFirefox;
#X obj 90 239 s sGedit;
#X obj 148 239 s sTerminal;
#X obj 43 142 select 1 2 3 4;
#X obj 167 186 bng 15 250 50 0 empty empty empty 17 7 0 10 -262144
-1 -1;
#X text 133 204 TERMINAL;
#X obj 228 239 s sGimp;
#X text 191 204 GIMP;
#X connect 0 0 1 0;
#X connect 1 0 12 0;
#X connect 2 0 9 0;
#X connect 3 0 10 0;
#X connect 4 0 11 0;
#X connect 12 0 2 0;
#X connect 12 1 3 0;
#X connect 12 2 4 0;
#X connect 12 3 13 0;
#X connect 13 0 15 0;
#X restore 283 -79 pd mapsound;
#N canvas 381 58 873 651 samples 1;
#X obj 389 537 st-delayfb;
#X obj 390 247 st-phaser;
#X obj 381 629 dac~;
#X obj 390 349 st-flanger;
#X obj 390 457 st-vibrato;
#X obj -93 71 mimosa-sampler;
#X obj 58 72 mimosa-sampler;
#X obj 10 8 r state01;
#X obj 161 7 r state02;
#X obj 10 36 tgl 15 0 empty empty empty 17 7 0 10 -262144 -1 -1 1 1
;
#X obj 161 38 tgl 15 0 empty empty empty 17 7 0 10 -262144 -1 -1 1
1;
#X obj 311 38 tgl 15 0 empty empty empty 17 7 0 10 -262144 -1 -1 1
1;
#X obj 490 38 tgl 15 0 empty empty empty 17 7 0 10 -262144 -1 -1 1
1;
#X obj 661 38 tgl 15 0 empty empty empty 17 7 0 10 -262144 -1 -1 1
1;
#X obj 208 72 mimosa-sampler;
#X obj 387 71 mimosa-sampler;
#X obj 311 7 r state03;
#X obj 490 7 r state04;
#X obj 661 7 r state05;
#X obj 558 70 mimosa-sampler;
#X msg -93 38 0;
#X connect 0 0 2 0;
#X connect 0 0 2 1;
#X connect 1 0 3 0;
#X connect 3 0 4 0;
#X connect 4 0 0 0;
#X connect 5 0 2 0;
#X connect 5 0 2 1;
#X connect 6 0 1 0;
#X connect 7 0 9 0;
#X connect 8 0 10 0;
#X connect 9 0 5 1;
#X connect 10 0 6 1;
#X connect 11 0 14 1;
#X connect 12 0 15 1;
#X connect 13 0 19 1;
#X connect 14 0 1 0;
#X connect 15 0 1 0;
#X connect 16 0 11 0;
#X connect 17 0 12 0;
#X connect 18 0 13 0;
#X connect 19 0 1 0;
#X connect 20 0 5 0;
#X restore 283 -55 pd samples;
#X text -149 164 EMOTIONAL KERNEL PANIC;
#X text 285 -111 CONTROLES;
#X msg 228 92 \; pd dsp 1;
#X msg 320 92 \; pd dsp 0;
#X text 249 125 ON;
#X text 337 125 OFF;
#X text -150 175 Mapeamento do Kernel Linux Processamento de Samples
e Imagens;
#X text -150 204 RICARDO BRAZILEIRO - rbrazileiro at gmail dot com
;
#X text 22 -175 EMOTIONAL KERNEL PANIC;
#N canvas 5 24 1203 620 emotional 0;
#X msg 231 176 offset 800 0;
#X msg 230 200 dimen 800 600;
#X obj 37 25 inlet;
#X obj 156 86 inlet;
#X obj 386 448 pix_kaleidoscope;
#X obj 386 478 pix_texture;
#X obj 412 420 r cpu3;
#X obj 399 391 r cpu1;
#X floatatom 431 511 5 0 0 0 - - -;
#X obj 79 189 gemwin;
#X msg 79 117 create \, 1;
#X msg 156 117 destroy;
#X obj 386 363 rotateXYZ;
#X obj 403 286 r cpu2;
#X obj 420 312 r cpu4;
#X obj 437 337 r cpu5;
#X obj 516 79 gemhead;
#X obj 516 54 tgl 15 0 empty empty empty 17 7 0 10 -262144 -1 -1 0
1;
#X obj 666 109 gemhead;
#X obj 666 84 tgl 15 0 empty empty empty 17 7 0 10 -262144 -1 -1 0
1;
#X obj 386 126 pix_add;
#X obj 386 156 pix_add;
#X obj 1074 199 gemhead;
#X obj 1074 174 tgl 15 0 empty empty empty 17 7 0 10 -262144 -1 -1
0 1;
#X obj 386 47 gemhead;
#X obj 386 186 pix_add;
#X obj 386 216 pix_add;
#X obj 386 246 pix_add;
#X obj 796 139 gemhead;
#X obj 796 114 tgl 15 0 empty empty empty 17 7 0 10 -262144 -1 -1 0
1;
#X obj 916 169 gemhead;
#X obj 916 144 tgl 15 0 empty empty empty 17 7 0 10 -262144 -1 -1 0
1;
#X obj 386 540 circle 4;
#X obj 516 109 pix_image vermelhoB.tif;
#X obj 666 139 pix_image verdeB.tif;
#X obj 796 169 pix_image roxoB.tif;
#X obj 386 92 pix_image alphaB.tif;
#X msg 284 118 lighting 0;
#X msg 219 118 border 0;
#X obj 37 62 s pre;
#X obj 277 83 r pre;
#X obj 79 62 delay 2000;
#X obj 516 29 r state01;
#X obj 666 59 r state02;
#X obj 796 80 r state03;
#X obj 916 112 r state04;
#X obj 1074 142 r state05;
#N canvas 0 0 763 223 states 0;
#X obj 35 60 r onM1;
#X obj 81 60 r offM1;
#X obj 142 61 r onM2;
#X obj 193 62 r offM2;
#X obj 253 63 r onM3;
#X obj 308 62 r offM3;
#X obj 473 65 r onM5;
#X obj 525 66 r offM5;
#X obj 415 64 r offM4;
#X obj 365 63 r onM4;
#X msg 35 94 1;
#X msg 142 97 1;
#X msg 253 99 1;
#X msg 365 99 1;
#X msg 473 101 1;
#X msg 525 102 0;
#X msg 415 98 0;
#X msg 308 100 0;
#X msg 193 99 0;
#X msg 81 95 0;
#X obj 35 134 s state01;
#X obj 142 134 s state02;
#X obj 253 134 s state03;
#X text 182 13 Estados dos Processos // liga-desliga mandalas;
#X obj 365 134 s state04;
#X obj 473 134 s state05;
#X obj 691 73 r pre;
#X msg 691 105 0;
#X obj 691 136 s offALL;
#X obj 555 189 r offALL;
#X connect 0 0 10 0;
#X connect 1 0 19 0;
#X connect 2 0 11 0;
#X connect 3 0 18 0;
#X connect 4 0 12 0;
#X connect 5 0 17 0;
#X connect 6 0 14 0;
#X connect 7 0 15 0;
#X connect 8 0 16 0;
#X connect 9 0 13 0;
#X connect 10 0 20 0;
#X connect 11 0 21 0;
#X connect 12 0 22 0;
#X connect 13 0 24 0;
#X connect 14 0 25 0;
#X connect 15 0 25 0;
#X connect 16 0 24 0;
#X connect 17 0 22 0;
#X connect 18 0 21 0;
#X connect 19 0 20 0;
#X connect 26 0 27 0;
#X connect 27 0 28 0;
#X connect 29 0 20 0;
#X connect 29 0 21 0;
#X connect 29 0 22 0;
#X connect 29 0 24 0;
#X connect 29 0 25 0;
#X restore 53 350 pd states;
#X obj 1074 229 pix_image pretoB.tif;
#X obj 916 199 pix_image azulclaroB.tif;
#X connect 2 0 39 0;
#X connect 2 0 41 0;
#X connect 3 0 11 0;
#X connect 4 0 5 0;
#X connect 5 0 32 0;
#X connect 6 0 4 2;
#X connect 7 0 4 1;
#X connect 8 0 32 1;
#X connect 10 0 9 0;
#X connect 11 0 9 0;
#X connect 12 0 4 0;
#X connect 13 0 12 1;
#X connect 14 0 12 2;
#X connect 15 0 12 3;
#X connect 16 0 33 0;
#X connect 17 0 16 0;
#X connect 18 0 34 0;
#X connect 19 0 18 0;
#X connect 20 0 21 0;
#X connect 21 0 25 0;
#X connect 22 0 48 0;
#X connect 23 0 22 0;
#X connect 24 0 36 0;
#X connect 25 0 26 0;
#X connect 26 0 27 0;
#X connect 27 0 12 0;
#X connect 28 0 35 0;
#X connect 29 0 28 0;
#X connect 30 0 49 0;
#X connect 31 0 30 0;
#X connect 33 0 20 1;
#X connect 34 0 21 1;
#X connect 35 0 25 1;
#X connect 36 0 20 0;
#X connect 37 0 9 0;
#X connect 38 0 9 0;
#X connect 40 0 38 0;
#X connect 40 0 37 0;
#X connect 41 0 10 0;
#X connect 42 0 17 0;
#X connect 43 0 19 0;
#X connect 44 0 29 0;
#X connect 45 0 31 0;
#X connect 46 0 23 0;
#X connect 48 0 27 1;
#X connect 49 0 26 1;
#X restore -60 2 pd emotional;
#N canvas 544 186 613 363 recebe_dados 0;
#X obj 20 317 import mrpeach/routeOSC;
#X obj 21 272 import mrpeach/udpreceive;
#X obj 20 295 import mrpeach/unpackOSC;
#X obj 171 106 unpackOSC;
#X obj 171 74 udpreceive 9002;
#N canvas 459 77 737 364 rSamples 0;
#X obj 288 6 r rSamples;
#X obj 40 87 routeOSC /sFirefox;
#X obj 40 155 s sFirefox;
#X obj 170 87 routeOSC /sGedit;
#X obj 300 87 routeOSC /sTerminal;
#X obj 430 87 routeOSC /sGimp;
#X obj 560 87 routeOSC /synthFirefox;
#X obj 170 154 s sGedit;
#X obj 300 155 s sTerminal;
#X obj 430 155 s sGimp;
#X obj 560 155 s synthFirefox;
#X obj 40 207 routeOSC /synthGedit;
#X obj 40 275 s synthGedit;
#X obj 170 207 routeOSC /synthXorg;
#X obj 170 275 s synthXorg;
#X obj 300 207 routeOSC /delayXorg;
#X obj 300 275 s delayXorg;
#X obj 430 207 routeOSC /delayGimp;
#X obj 430 275 s delayGimp;
#X obj 559 207 routeOSC /synthHald;
#X obj 40 317 routeOSC /synthFind;
#X obj 560 275 s synthHald;
#X obj 40 385 s synthFind;
#X floatatom 558 122 5 0 0 0 - - -;
#X floatatom 40 242 5 0 0 0 - - -;
#X floatatom 170 242 5 0 0 0 - - -;
#X floatatom 300 246 5 0 0 0 - - -;
#X floatatom 430 243 5 0 0 0 - - -;
#X floatatom 559 242 5 0 0 0 - - -;
#X floatatom 40 352 5 0 0 0 - - -;
#X obj 40 117 bng 15 250 50 0 empty empty empty 17 7 0 10 -262144 -1
-1;
#X obj 169 120 bng 15 250 50 0 empty empty empty 17 7 0 10 -262144
-1 -1;
#X obj 299 120 bng 15 250 50 0 empty empty empty 17 7 0 10 -262144
-1 -1;
#X obj 429 120 bng 15 250 50 0 empty empty empty 17 7 0 10 -262144
-1 -1;
#X obj 164 337 bng 15 250 50 0 empty empty empty 17 7 0 10 -262144
-1 -1;
#X obj 186 351 s Find;
#X floatatom 657 257 5 0 0 0 - - -;
#X obj 606 239 * 2.5;
#X connect 0 0 1 0;
#X connect 0 0 3 0;
#X connect 0 0 4 0;
#X connect 0 0 5 0;
#X connect 0 0 6 0;
#X connect 0 0 11 0;
#X connect 0 0 13 0;
#X connect 0 0 15 0;
#X connect 0 0 17 0;
#X connect 0 0 19 0;
#X connect 0 0 20 0;
#X connect 1 0 30 0;
#X connect 3 0 31 0;
#X connect 4 0 32 0;
#X connect 5 0 33 0;
#X connect 6 0 23 0;
#X connect 11 0 24 0;
#X connect 13 0 25 0;
#X connect 15 0 26 0;
#X connect 17 0 27 0;
#X connect 19 0 28 0;
#X connect 20 0 29 0;
#X connect 23 0 10 0;
#X connect 24 0 12 0;
#X connect 25 0 14 0;
#X connect 26 0 16 0;
#X connect 27 0 18 0;
#X connect 28 0 37 0;
#X connect 29 0 22 0;
#X connect 29 0 34 0;
#X connect 30 0 2 0;
#X connect 31 0 7 0;
#X connect 32 0 8 0;
#X connect 33 0 9 0;
#X connect 34 0 35 0;
#X connect 36 0 21 0;
#X connect 37 0 36 0;
#X restore 347 105 pd rSamples;
#X obj 95 176 s rSamples;
#N canvas 531 414 564 300 rCPU 0;
#X floatatom -447 146 5 0 0 0 - - -;
#X floatatom -328 149 5 0 0 0 - - -;
#X floatatom -219 150 5 0 0 0 - - -;
#X obj -447 98 routeOSC /cpu1;
#X obj -328 97 routeOSC /cpu2;
#X obj -219 98 routeOSC /cpu3;
#X obj -328 184 s cpu2;
#X obj -447 183 s cpu1;
#X obj -219 189 s cpu3;
#X floatatom -119 150 5 0 0 0 - - -;
#X floatatom -9 150 5 0 0 0 - - -;
#X obj -119 98 routeOSC /cpu4;
#X obj -119 189 s cpu4;
#X obj -9 189 s cpu5;
#X obj -9 98 routeOSC /cpu5;
#X obj -213 29 r rCPU;
#X connect 0 0 7 0;
#X connect 1 0 6 0;
#X connect 2 0 8 0;
#X connect 3 0 0 0;
#X connect 4 0 1 0;
#X connect 5 0 2 0;
#X connect 9 0 12 0;
#X connect 10 0 13 0;
#X connect 11 0 9 0;
#X connect 14 0 10 0;
#X connect 15 0 3 0;
#X connect 15 0 4 0;
#X connect 15 0 5 0;
#X connect 15 0 11 0;
#X connect 15 0 14 0;
#X restore 348 128 pd rCPU;
#N canvas 477 305 793 408 rProcessos 0;
#X obj 121 82 routeOSC /on1;
#X obj 113 263 routeOSC /off1;
#X obj 219 82 routeOSC /on2;
#X obj 212 264 routeOSC /off2;
#X obj 324 84 routeOSC /on3;
#X obj 315 266 routeOSC /off3;
#X obj 121 159 s onM1;
#X obj 113 341 s offM1;
#X obj 219 163 s onM2;
#X obj 212 342 s offM2;
#X obj 324 162 s onM3;
#X obj 315 342 s offM3;
#X obj 121 123 bng 15 250 50 0 empty empty empty 17 7 0 10 -262144
-1 -1;
#X obj 113 306 bng 15 250 50 0 empty empty empty 17 7 0 10 -262144
-1 -1;
#X obj 219 130 bng 15 250 50 0 empty empty empty 17 7 0 10 -262144
-1 -1;
#X obj 212 312 bng 15 250 50 0 empty empty empty 17 7 0 10 -262144
-1 -1;
#X obj 324 130 bng 15 250 50 0 empty empty empty 17 7 0 10 -262144
-1 -1;
#X obj 315 310 bng 15 250 50 0 empty empty empty 17 7 0 10 -262144
-1 -1;
#X obj 513 127 bng 15 250 50 0 empty empty empty 17 7 0 10 -262144
-1 -1;
#X obj 523 312 bng 15 250 50 0 empty empty empty 17 7 0 10 -262144
-1 -1;
#X obj 417 129 bng 15 250 50 0 empty empty empty 17 7 0 10 -262144
-1 -1;
#X obj 419 309 bng 15 250 50 0 empty empty empty 17 7 0 10 -262144
-1 -1;
#X obj 417 84 routeOSC /on4;
#X obj 417 163 s onM4;
#X obj 419 343 s offM4;
#X obj 419 268 routeOSC /off4;
#X obj 513 85 routeOSC /on5;
#X obj 523 270 routeOSC /off5;
#X obj 523 343 s offM5;
#X obj 513 164 s onM5;
#X obj 337 14 r rProcessos;
#X connect 0 0 12 0;
#X connect 1 0 13 0;
#X connect 2 0 14 0;
#X connect 3 0 15 0;
#X connect 4 0 16 0;
#X connect 5 0 17 0;
#X connect 12 0 6 0;
#X connect 13 0 7 0;
#X connect 14 0 8 0;
#X connect 15 0 9 0;
#X connect 16 0 10 0;
#X connect 17 0 11 0;
#X connect 18 0 29 0;
#X connect 19 0 28 0;
#X connect 20 0 23 0;
#X connect 21 0 24 0;
#X connect 22 0 20 0;
#X connect 25 0 21 0;
#X connect 26 0 18 0;
#X connect 27 0 19 0;
#X connect 30 0 0 0;
#X connect 30 0 2 0;
#X connect 30 0 4 0;
#X connect 30 0 22 0;
#X connect 30 0 26 0;
#X connect 30 0 1 0;
#X connect 30 0 3 0;
#X connect 30 0 5 0;
#X connect 30 0 25 0;
#X connect 30 0 27 0;
#X restore 348 152 pd rProcessos;
#X obj 171 178 s rProcessos;
#X obj 258 178 s rCPU;
#X text 355 76 CONTROLES;
#X text 175 42 RECEBE EVENTOS;
#X connect 3 0 6 0;
#X connect 3 0 9 0;
#X connect 3 0 10 0;
#X connect 4 0 3 0;
#X restore 282 -31 pd recebe_dados;
#X obj -60 -49 bng 30 250 50 0 empty empty empty 17 7 0 10 -4034 -1
-1;
#X obj 9 -48 bng 30 250 50 0 empty empty empty 17 7 0 10 -258113 -1
-1;
#X text -70 -87 MULTIMIDIA (GEM+SAMPLES);
#X text 279 65 AUDIO;
#X connect 13 0 11 0;
#X connect 14 0 11 1;
