#N canvas 0 6 1012 523 10;
#X declare -lib mrpeach/packOSC;
#X declare -lib mrpeach/udpsend;
#N canvas 546 203 349 190 mapsound 0;
#X text 106 13 MAPA SONORO DO KERNEL;
#N canvas 100 100 788 437 mapCPU 0;
#X text 255 19 CPU;
#X floatatom 54 92 5 0 0 0 - - -;
#X obj 54 56 r cpuFirefox;
#X floatatom 251 169 5 0 0 0 - - -;
#X obj 78 182 s synthFirefox;
#X obj 251 200 s synthGedit;
#X floatatom 405 176 5 0 0 0 - - -;
#X obj 405 201 s synthXorg;
#X obj 221 58 r cpuGedit;
#X obj 375 59 r cpuXorg;
#X floatatom 545 97 5 0 0 0 - - -;
#X obj 577 136 autoscale 0.2 0.9;
#X floatatom 577 173 5 0 0 0 - - -;
#X obj 577 202 s synthFind;
#X obj 545 62 r cpuFind;
#X floatatom 75 240 5 0 0 0 - - -;
#X obj 54 262 > 40;
#X obj 54 287 sel 1;
#X floatatom 242 240 5 0 0 0 - - -;
#X obj 221 262 > 40;
#X obj 221 287 sel 1;
#X obj 221 314 bng 15 250 50 0 empty empty empty 17 7 0 10 -262144
-1 -1;
#X obj 221 344 s sGedit;
#X floatatom 396 240 5 0 0 0 - - -;
#X obj 375 262 > 40;
#X obj 375 287 sel 1;
#X floatatom 566 239 5 0 0 0 - - -;
#X obj 545 261 > 40;
#X obj 545 286 sel 1;
#X floatatom 375 96 5 0 0 0 - - -;
#X floatatom 221 95 5 0 0 0 - - -;
#X obj 374 344 s onXorg;
#X obj 435 345 s offXorg;
#X msg 402 312 0;
#X msg 370 314 1;
#X msg 54 327 1;
#X msg 84 327 0;
#X obj 54 375 s onFirefox;
#X obj 129 375 s offFirefox;
#X msg 572 321 0;
#X msg 540 323 1;
#X obj 544 353 s onFind;
#X obj 605 354 s offFind;
#X obj 76 124 / 100;
#X floatatom 78 152 5 0 0 0 - - -;
#X obj 251 125 / 100;
#X obj 405 125 / 100;
#X connect 1 0 16 0;
#X connect 1 0 43 0;
#X connect 2 0 1 0;
#X connect 3 0 5 0;
#X connect 6 0 7 0;
#X connect 8 0 30 0;
#X connect 9 0 29 0;
#X connect 10 0 11 0;
#X connect 10 0 27 0;
#X connect 11 0 12 0;
#X connect 12 0 13 0;
#X connect 14 0 10 0;
#X connect 15 0 16 1;
#X connect 16 0 17 0;
#X connect 17 0 35 0;
#X connect 17 1 36 0;
#X connect 18 0 19 1;
#X connect 19 0 20 0;
#X connect 20 0 21 0;
#X connect 21 0 22 0;
#X connect 23 0 24 1;
#X connect 24 0 25 0;
#X connect 25 0 34 0;
#X connect 25 1 33 0;
#X connect 26 0 27 1;
#X connect 27 0 28 0;
#X connect 28 0 40 0;
#X connect 28 1 39 0;
#X connect 29 0 24 0;
#X connect 29 0 46 0;
#X connect 30 0 19 0;
#X connect 30 0 45 0;
#X connect 33 0 32 0;
#X connect 34 0 31 0;
#X connect 35 0 37 0;
#X connect 36 0 38 0;
#X connect 39 0 42 0;
#X connect 40 0 41 0;
#X connect 43 0 44 0;
#X connect 44 0 4 0;
#X connect 45 0 3 0;
#X connect 46 0 6 0;
#X restore 134 63 pd mapCPU;
#N canvas 361 6 529 523 mapKernel 0;
#X obj 70 20 r kUser2;
#X obj 18 20 r kUser;
#X obj 216 21 r kSystem;
#X obj 286 21 r kSystem2;
#X obj 367 21 r kIdle;
#X obj 437 21 r kIdle2;
#X floatatom 18 57 10 0 0 0 - - -;
#X floatatom 90 57 10 0 0 0 - - -;
#X floatatom 216 59 10 0 0 0 - - -;
#X floatatom 286 59 10 0 0 0 - - -;
#X floatatom 367 57 10 0 0 0 - - -;
#X floatatom 437 58 10 0 0 0 - - -;
#X obj 18 96 -;
#X obj 216 94 -;
#X obj 367 94 -;
#X floatatom 18 132 5 0 0 0 - - -;
#X floatatom 216 132 5 0 0 0 - - -;
#X floatatom 367 133 5 0 0 0 - - -;
#X floatatom 218 196 5 0 0 0 - - -;
#X obj 26 211 s syn-User;
#X obj 218 230 s syn-System;
#X obj 367 172 s syn-Idle;
#X floatatom 19 424 5 0 0 0 - - -;
#X obj 19 453 sel 1;
#X obj 19 600 bng 15 250 50 0 empty empty empty 17 7 0 10 -262144 -1
-1;
#X msg 19 625 0;
#X obj 19 655 s stopGain;
#X obj 19 567 change 1;
#X obj 46 478 bng 15 250 50 0 empty empty empty 17 7 0 10 -262144 -1
-1;
#X obj 46 535 s startGain;
#X obj 19 337 r syn-User;
#X floatatom 19 283 5 0 0 0 - - -;
#X obj 19 314 s synthKUser;
#X floatatom 116 234 5 0 0 0 - - -;
#X obj 116 200 * 2;
#X obj 116 263 s cpuUSER;
#X floatatom 306 204 5 0 0 0 - - -;
#X obj 306 170 * 2;
#X obj 306 233 s cpuSystem;
#X floatatom 466 234 5 0 0 0 - - -;
#X obj 466 263 s cpuIdle;
#X obj 466 200 / 2;
#X text 129 0 Mapa de uso da CPU-KERNEL;
#X obj 18 157 / 100;
#X floatatom 19 180 5 0 0 0 - - -;
#X obj 218 157 / 100;
#X obj 19 390 < 0.6;
#X obj 46 362 r sKUser;
#X obj 34 230 r synthSet;
#X text 54 376 regula sensibilidade;
#X obj 19 252 *;
#X msg 46 505 0.3;
#X obj 51 598 loadbang;
#X connect 0 0 7 0;
#X connect 1 0 6 0;
#X connect 2 0 8 0;
#X connect 3 0 9 0;
#X connect 4 0 10 0;
#X connect 5 0 11 0;
#X connect 6 0 12 0;
#X connect 7 0 12 1;
#X connect 8 0 13 0;
#X connect 9 0 13 1;
#X connect 10 0 14 0;
#X connect 11 0 14 1;
#X connect 12 0 15 0;
#X connect 13 0 16 0;
#X connect 14 0 17 0;
#X connect 15 0 34 0;
#X connect 15 0 43 0;
#X connect 16 0 37 0;
#X connect 16 0 45 0;
#X connect 17 0 21 0;
#X connect 17 0 41 0;
#X connect 18 0 20 0;
#X connect 22 0 23 0;
#X connect 23 0 27 0;
#X connect 23 1 28 0;
#X connect 24 0 25 0;
#X connect 25 0 26 0;
#X connect 27 0 24 0;
#X connect 28 0 51 0;
#X connect 30 0 46 0;
#X connect 31 0 32 0;
#X connect 33 0 35 0;
#X connect 34 0 33 0;
#X connect 36 0 38 0;
#X connect 37 0 36 0;
#X connect 39 0 40 0;
#X connect 41 0 39 0;
#X connect 43 0 44 0;
#X connect 44 0 19 0;
#X connect 44 0 50 0;
#X connect 45 0 18 0;
#X connect 46 0 22 0;
#X connect 47 0 46 1;
#X connect 48 0 50 1;
#X connect 50 0 31 0;
#X connect 51 0 29 0;
#X connect 52 0 25 0;
#X restore 134 40 pd mapKernel;
#X restore 781 -90 pd mapsound;
#X obj -112 -55 bng 30 250 50 0 empty empty empty 17 7 0 10 -4034 -13330
-1;
#X obj -55 -54 bng 30 250 50 0 empty empty empty 17 7 0 10 -258113
-1 -1;
#X text 100 -73 DESLIGA;
#X text 54 -73 LIGA;
#X obj 56 -54 bng 30 250 50 0 empty empty empty 17 7 0 10 -4034 -13330
-1;
#X obj 107 -53 bng 30 250 50 0 empty empty empty 17 7 0 10 -258113
-1 -1;
#X text -54 -73 DESLIGA;
#X text -112 -75 LIGA;
#X text -54 -73 DESLIGA;
#X text -112 -75 LIGA;
#X text -54 -73 DESLIGA;
#X text -112 -75 LIGA;
#X text -91 -93 PROCESSOS;
#X text -142 307 EMOTIONAL KERNEL PANIC;
#X text 783 -122 CONTROLES;
#N canvas 289 39 473 458 statusP 0;
#X floatatom 62 69 5 0 0 0 - - -;
#X floatatom 189 70 5 0 0 0 - - -;
#X obj 62 24 r randomProcessos;
#X obj 189 25 r statusProcessos;
#X obj 226 380 s on1;
#X obj 12 379 s off1;
#X obj 277 381 s on2;
#X obj 68 379 s off2;
#X obj 324 382 s on3;
#X obj 117 380 s off3;
#X floatatom 111 163 5 0 0 0 - - -;
#X floatatom 75 269 5 0 0 0 - - -;
#X obj 75 338 bng 15 250 50 0 empty empty empty 17 7 0 10 -262144 -1
-1;
#X obj 98 338 bng 15 250 50 0 empty empty empty 17 7 0 10 -262144 -1
-1;
#X obj 121 338 bng 15 250 50 0 empty empty empty 17 7 0 10 -262144
-1 -1;
#X text 89 283 OFF;
#X text 258 279 ON;
#X obj 228 334 bng 15 250 50 0 empty empty empty 17 7 0 10 -262144
-1 -1;
#X obj 251 334 bng 15 250 50 0 empty empty empty 17 7 0 10 -262144
-1 -1;
#X obj 274 334 bng 15 250 50 0 empty empty empty 17 7 0 10 -262144
-1 -1;
#X obj 125 108 !=;
#X obj 47 96 i;
#X floatatom 47 127 5 0 0 0 - - -;
#X obj 174 99 i;
#X floatatom 174 126 5 0 0 0 - - -;
#X obj 328 13 bng 15 250 50 0 empty empty empty 17 7 0 10 -262144 -1
-1;
#X obj 328 66 s start;
#X obj 4 69 r start;
#X obj 126 72 r start;
#X msg 356 12 stop;
#X obj 328 -10 r startALL;
#X obj 328 41 metro 2000;
#X obj 110 137 int;
#X obj 98 218 int;
#X obj 174 171 sel 1;
#X obj 161 202 bng 15 250 50 0 empty empty empty 17 7 0 10 -262144
-1 -1;
#X obj 397 -9 r stopALL;
#X obj 75 301 select 1 2 3 4;
#X obj 228 300 select 1 2 3 4;
#X obj 151 338 bng 15 250 50 0 empty empty empty 17 7 0 10 -262144
-1 -1;
#X obj 304 334 bng 15 250 50 0 empty empty empty 17 7 0 10 -262144
-1 -1;
#X obj 162 379 s off4;
#X obj 364 382 s on4;
#N canvas 0 0 637 300 states 0;
#X msg 35 94 1;
#X msg 142 97 1;
#X msg 253 99 1;
#X msg 365 99 1;
#X msg 473 101 1;
#X msg 525 102 0;
#X msg 415 98 0;
#X msg 308 100 0;
#X msg 193 99 0;
#X msg 81 95 0;
#X obj 35 134 s state01;
#X obj 142 134 s state02;
#X obj 253 134 s state03;
#X text 182 13 Estados dos Processos // liga-desliga mandalas;
#X obj 365 134 s state04;
#X obj 473 134 s state05;
#X obj 691 73 r pre;
#X msg 691 105 0;
#X obj 691 136 s offALL;
#X obj 555 189 r offALL;
#X obj 35 60 r on1;
#X obj 81 60 r off1;
#X obj 142 61 r on2;
#X obj 192 62 r off2;
#X obj 253 63 r on3;
#X obj 308 62 r off3;
#X obj 365 63 r on4;
#X obj 415 64 r off4;
#X obj 473 65 r on5;
#X obj 525 66 r off5;
#X obj 64 249 tgl 15 0 empty empty empty 17 7 0 10 -262144 -1 -1 0
1;
#X obj 64 221 r state02;
#X connect 0 0 10 0;
#X connect 1 0 11 0;
#X connect 2 0 12 0;
#X connect 3 0 14 0;
#X connect 4 0 15 0;
#X connect 5 0 15 0;
#X connect 6 0 14 0;
#X connect 7 0 12 0;
#X connect 8 0 11 0;
#X connect 9 0 10 0;
#X connect 16 0 17 0;
#X connect 17 0 18 0;
#X connect 19 0 10 0;
#X connect 19 0 11 0;
#X connect 19 0 12 0;
#X connect 19 0 14 0;
#X connect 19 0 15 0;
#X connect 20 0 0 0;
#X connect 21 0 9 0;
#X connect 22 0 1 0;
#X connect 23 0 8 0;
#X connect 24 0 2 0;
#X connect 25 0 7 0;
#X connect 26 0 3 0;
#X connect 27 0 6 0;
#X connect 28 0 4 0;
#X connect 29 0 5 0;
#X connect 31 0 30 0;
#X restore 342 181 pd states;
#X text 323 156 status processos;
#X connect 0 0 21 1;
#X connect 1 0 23 1;
#X connect 2 0 0 0;
#X connect 3 0 1 0;
#X connect 10 0 34 0;
#X connect 11 0 37 0;
#X connect 12 0 5 0;
#X connect 13 0 7 0;
#X connect 14 0 9 0;
#X connect 17 0 4 0;
#X connect 18 0 6 0;
#X connect 19 0 8 0;
#X connect 20 0 32 0;
#X connect 21 0 22 0;
#X connect 22 0 20 0;
#X connect 22 0 33 1;
#X connect 23 0 24 0;
#X connect 24 0 20 1;
#X connect 24 0 38 0;
#X connect 25 0 31 0;
#X connect 27 0 21 0;
#X connect 28 0 23 0;
#X connect 29 0 31 0;
#X connect 30 0 25 0;
#X connect 31 0 26 0;
#X connect 32 0 10 0;
#X connect 33 0 11 0;
#X connect 34 0 35 0;
#X connect 35 0 22 0;
#X connect 35 0 33 0;
#X connect 36 0 29 0;
#X connect 37 0 12 0;
#X connect 37 1 13 0;
#X connect 37 2 14 0;
#X connect 37 3 39 0;
#X connect 38 0 17 0;
#X connect 38 1 18 0;
#X connect 38 2 19 0;
#X connect 38 3 40 0;
#X connect 39 0 41 0;
#X connect 40 0 42 0;
#X restore 781 -66 pd statusP;
#X text 241 -72 DESLIGA;
#X text 201 -73 LIGA;
#X obj 203 -52 bng 30 250 50 0 empty empty empty 17 7 0 10 -4034 -13330
-1;
#X obj 248 -52 bng 30 250 50 0 empty empty empty 17 7 0 10 -258113
-1 -1;
#X text 209 -91 ENVIA DADOS;
#N canvas 130 151 514 256 kernel 0;
#X obj 241 -168 bng 15 250 50 0 empty empty empty 17 7 0 10 -262144
-1 -1;
#X msg 281 -170 stop;
#X obj 174 -191 inlet;
#X obj 306 -219 inlet;
#X obj 279 -104 bng 15 250 50 0 empty empty empty 17 7 0 10 -262144
-1 -1;
#X obj 219 -70 delay 200;
#X obj 291 -70 delay 200;
#N canvas 0 6 788 502 kernel1 0;
#X obj 162 5 bng 15 250 50 0 empty empty empty 17 7 0 10 -262144 -1
-1;
#X obj 162 79 shell;
#X obj 162 -22 inlet;
#X floatatom 60 202 5 0 0 0 - - -;
#X floatatom 118 202 5 0 0 0 - - -;
#X floatatom 168 202 5 0 0 0 - - -;
#X floatatom 225 202 10 0 0 0 - - -;
#X floatatom 298 202 5 0 0 0 - - -;
#X floatatom 358 202 5 0 0 0 - - -;
#X floatatom 408 202 5 0 0 0 - - -;
#X text 62 224 USER;
#X text 120 224 NICE;
#X text 170 224 SYSTEM;
#X text 230 224 IDLE;
#X text 300 224 IOWAIT;
#X text 360 224 IRQ;
#X text 410 224 SOFTIRQ;
#X text -117 402 USER - Normal Processes executing in user mode NICE
- niced processes executing in user mode SYSTEM - processes executing
in kernel mode IDLE - Twidding thumbs IOwAIT - waiting for I/O to complete
IRQ - servicing interrupts SOFTIRQ: servicing softirqs;
#X obj 162 147 unpack s f f f f f f f;
#X obj 162 110 pack s f f f f f f f;
#X text 349 449 INFORMAÇÔES DA CPU RICARDO BRAZILEIRO;
#X obj 60 254 s kUser;
#X obj 168 253 s kSystem;
#X obj 298 253 s kIOwait;
#X obj 358 253 s kIRQ;
#X obj 572 5 bng 15 250 50 0 empty empty empty 17 7 0 10 -262144 -1
-1;
#X obj 572 79 shell;
#X msg 572 36 cat /proc/stat |grep "cpu ";
#X floatatom 470 202 5 0 0 0 - - -;
#X floatatom 528 202 5 0 0 0 - - -;
#X floatatom 578 202 5 0 0 0 - - -;
#X floatatom 635 202 10 0 0 0 - - -;
#X floatatom 708 202 5 0 0 0 - - -;
#X floatatom 768 202 5 0 0 0 - - -;
#X floatatom 818 202 5 0 0 0 - - -;
#X text 472 224 USER;
#X text 530 224 NICE;
#X text 580 224 SYSTEM;
#X text 640 224 IDLE;
#X text 710 224 IOWAIT;
#X text 770 224 IRQ;
#X text 820 224 SOFTIRQ;
#X obj 572 147 unpack s f f f f f f f;
#X obj 572 110 pack s f f f f f f f;
#X obj 238 -12 delay 100;
#X obj 470 254 s kUser2;
#X obj 578 253 s kSystem2;
#X obj 708 253 s kIOwait2;
#X obj 774 253 s kIRQ2;
#X obj 233 253 s kIdle;
#X obj 651 253 s kIdle2;
#X msg 162 36 cat /proc/stat |egrep "cpu ";
#X connect 0 0 51 0;
#X connect 0 0 44 0;
#X connect 1 0 19 0;
#X connect 2 0 0 0;
#X connect 3 0 21 0;
#X connect 5 0 22 0;
#X connect 6 0 49 0;
#X connect 7 0 23 0;
#X connect 8 0 24 0;
#X connect 18 1 3 0;
#X connect 18 2 4 0;
#X connect 18 3 5 0;
#X connect 18 4 6 0;
#X connect 18 5 7 0;
#X connect 18 6 8 0;
#X connect 18 7 9 0;
#X connect 19 0 18 0;
#X connect 25 0 27 0;
#X connect 26 0 43 0;
#X connect 27 0 26 0;
#X connect 28 0 45 0;
#X connect 30 0 46 0;
#X connect 31 0 50 0;
#X connect 32 0 47 0;
#X connect 33 0 48 0;
#X connect 42 1 28 0;
#X connect 42 2 29 0;
#X connect 42 3 30 0;
#X connect 42 4 31 0;
#X connect 42 5 32 0;
#X connect 42 6 33 0;
#X connect 42 7 34 0;
#X connect 43 0 42 0;
#X connect 44 0 25 0;
#X connect 51 0 1 0;
#X restore 219 -30 pd kernel1;
#N canvas 3 45 723 424 kernel2 0;
#X obj 252 15 bng 15 250 50 0 empty empty empty 17 7 0 10 -262144 -1
-1;
#X obj 252 89 shell;
#X obj 252 121 pack f s f f s s s s f f s s;
#X obj 252 157 unpack f s f f s s s s f f s s;
#X floatatom 25 208 5 0 0 0 - - -;
#X floatatom 511 215 5 0 0 0 - - -;
#X floatatom 555 216 5 0 0 0 - - -;
#X symbolatom 604 218 10 0 0 0 - - -;
#X text 510 232 CPUINFO;
#X text 560 231 MEMORIA;
#X symbolatom 81 209 10 0 0 0 - - -;
#X floatatom 147 210 5 0 0 0 - - -;
#X floatatom 186 210 5 0 0 0 - - -;
#X symbolatom 224 211 10 0 0 0 - - -;
#X symbolatom 292 211 10 0 0 0 - - -;
#X symbolatom 363 211 10 0 0 0 - - -;
#X symbolatom 431 211 10 0 0 0 - - -;
#X obj 252 -12 inlet;
#X obj 475 257 s cpuXorg;
#X obj 555 257 s memXorg;
#X msg 252 46 top -n 1 -b |grep Xorg;
#X obj 331 88 print;
#X connect 0 0 20 0;
#X connect 1 0 2 0;
#X connect 1 0 21 0;
#X connect 2 0 3 0;
#X connect 3 0 4 0;
#X connect 3 1 10 0;
#X connect 3 2 11 0;
#X connect 3 3 12 0;
#X connect 3 4 13 0;
#X connect 3 5 14 0;
#X connect 3 6 15 0;
#X connect 3 7 16 0;
#X connect 3 8 5 0;
#X connect 3 9 6 0;
#X connect 3 11 7 0;
#X connect 5 0 18 0;
#X connect 6 0 19 0;
#X connect 17 0 0 0;
#X connect 20 0 1 0;
#X restore 291 -29 pd kernel2;
#X obj 276 -136 metro 1000;
#X connect 0 0 9 0;
#X connect 1 0 9 0;
#X connect 2 0 0 0;
#X connect 3 0 1 0;
#X connect 4 0 5 0;
#X connect 5 0 7 0;
#X connect 5 0 6 0;
#X connect 6 0 8 0;
#X connect 9 0 4 0;
#X restore 56 0 pd kernel;
#N canvas 0 6 623 523 process 0;
#X obj 52 125 shell;
#X floatatom -49 267 5 0 0 0 - - -;
#X symbolatom -6 267 10 0 0 0 - - -;
#X obj -45 234 unpack f s s s;
#X symbolatom 68 269 10 0 0 0 - - -;
#X obj -45 210 pack f s s s;
#X text -156 209 empacota os dados;
#X text -45 284 ID;
#X text 3 285 TIME;
#X text 77 287 PROGRAMA;
#X obj -73 496 s mapProcessos;
#X obj 72 -180 bng 15 250 50 0 empty empty empty 17 7 0 10 -262144
-1 -1;
#X floatatom 29 -63 5 0 0 0 - - -;
#X obj 8 8 bng 15 250 50 0 empty empty empty 17 7 0 10 -262144 -1 -1
;
#X obj 33 11 bng 15 250 50 0 empty empty empty 17 7 0 10 -262144 -1
-1;
#X obj 58 12 bng 15 250 50 0 empty empty empty 17 7 0 10 -262144 -1
-1;
#X msg 107 -179 stop;
#X obj 68 -213 inlet;
#X obj 123 -212 inlet;
#X text 233 -213 PROCESSOS;
#X obj -75 435 bng 15 250 50 0 empty empty empty 17 7 0 10 -262144
-1 -1;
#X obj 49 437 bng 15 250 50 0 empty empty empty 17 7 0 10 -262144 -1
-1;
#X obj 126 433 bng 15 250 50 0 empty empty empty 17 7 0 10 -262144
-1 -1;
#X obj 87 497 s statusProcessos;
#X obj 85 -63 s randomProcessos;
#X msg -82 460 1;
#X msg 36 462 2;
#X msg 119 463 3;
#X obj 168 -187 s startALL;
#X obj 35 333 symbol;
#X obj 70 233 delay 300;
#X obj 249 -187 s stopALL;
#X obj 32 -90 random 5;
#X obj 31 -32 select 1 2 3 4;
#X obj 246 433 bng 15 250 50 0 empty empty empty 17 7 0 10 -262144
-1 -1;
#X msg 239 463 4;
#X obj 81 5 bng 15 250 50 0 empty empty empty 17 7 0 10 -262144 -1
-1;
#X msg -124 63 ps -e |grep firefox;
#X msg 19 64 ps -e |grep gedit;
#X msg 153 64 ps -e |grep gimp;
#X msg 289 62 ps -e |grep terminal;
#X obj -75 405 sel firefox;
#X obj 48 405 sel gedit;
#X obj 125 405 sel gimp;
#X obj 245 405 sel gnome-terminal;
#X obj 32 -122 metro 2000;
#X connect 0 0 5 0;
#X connect 0 1 30 0;
#X connect 3 0 1 0;
#X connect 3 2 2 0;
#X connect 3 3 4 0;
#X connect 4 0 29 1;
#X connect 5 0 3 0;
#X connect 11 0 28 0;
#X connect 11 0 45 0;
#X connect 12 0 24 0;
#X connect 12 0 33 0;
#X connect 13 0 37 0;
#X connect 14 0 38 0;
#X connect 15 0 39 0;
#X connect 16 0 31 0;
#X connect 16 0 45 0;
#X connect 17 0 11 0;
#X connect 18 0 16 0;
#X connect 20 0 25 0;
#X connect 21 0 26 0;
#X connect 22 0 27 0;
#X connect 25 0 10 0;
#X connect 25 0 23 0;
#X connect 26 0 10 0;
#X connect 26 0 23 0;
#X connect 27 0 10 0;
#X connect 27 0 23 0;
#X connect 29 0 41 0;
#X connect 29 0 42 0;
#X connect 29 0 43 0;
#X connect 29 0 44 0;
#X connect 30 0 29 0;
#X connect 32 0 12 0;
#X connect 33 0 13 0;
#X connect 33 1 14 0;
#X connect 33 2 15 0;
#X connect 33 3 36 0;
#X connect 34 0 35 0;
#X connect 35 0 23 0;
#X connect 35 0 10 0;
#X connect 36 0 40 0;
#X connect 37 0 0 0;
#X connect 38 0 0 0;
#X connect 39 0 0 0;
#X connect 40 0 0 0;
#X connect 41 0 20 0;
#X connect 42 0 21 0;
#X connect 43 0 22 0;
#X connect 44 0 34 0;
#X connect 45 0 32 0;
#X restore -112 -1 pd process;
#X text 72 -93 KERNEL;
#N canvas 360 95 440 327 panic 0;
#X obj -185 84 import mrpeach/packOSC;
#X obj -185 61 import mrpeach/udpsend;
#X text -184 13 sending OSC messages;
#X obj -142 281 udpsend;
#X msg -137 147 disconnect;
#X obj -202 147 loadbang;
#X obj -124 245 packOSC;
#X obj -124 215 r osc_packer;
#X obj -224 106 inlet;
#X obj -224 131 bng 15 250 50 0 empty empty empty 17 7 0 10 -262144
-1 -1;
#X obj -38 99 inlet;
#X obj -38 123 bng 15 250 50 0 empty empty empty 17 7 0 10 -262144
-1 -1;
#N canvas 424 131 814 321 sCPU 0;
#X floatatom 248 124 5 0 0 0 - - -;
#X floatatom 248 124 5 0 0 0 - - -;
#X floatatom -30 117 5 0 0 0 - - -;
#X obj 249 197 s osc_packer;
#X obj -30 193 s osc_packer;
#X obj 105 196 s osc_packer;
#X msg -30 161 send /cpu1 \$1;
#X msg 105 162 send /cpu2 \$1;
#X msg 249 164 send /cpu3 \$1;
#X obj 372 198 s osc_packer;
#X msg 372 166 send /cpu4 \$1;
#X floatatom 372 124 5 0 0 0 - - -;
#X floatatom 372 124 5 0 0 0 - - -;
#X obj 372 84 r cpuHald;
#X obj 478 183 bng 15 250 50 0 empty empty empty 17 7 0 10 -262144
-1 -1;
#X obj 487 206 s on5;
#X floatatom 478 119 5 0 0 0 - - -;
#X obj 478 150 sel 1;
#X obj 602 198 s osc_packer;
#X msg 602 166 send /cpu5 \$1;
#X obj 478 92 >= 3;
#X obj 478 261 bng 15 250 50 0 empty empty empty 17 7 0 10 -262144
-1 -1;
#X obj 478 290 s off5;
#X obj 478 236 delay 5000;
#X obj -30 81 r cpuUSER;
#X obj 248 84 r cpuXorg;
#X obj 105 82 r cpuSystem;
#X floatatom 105 116 5 0 0 0 - - -;
#X obj 602 84 r cpuIdle;
#X floatatom 602 120 5 0 0 0 - - -;
#X connect 0 0 8 0;
#X connect 2 0 6 0;
#X connect 6 0 4 0;
#X connect 7 0 5 0;
#X connect 8 0 3 0;
#X connect 10 0 9 0;
#X connect 11 0 10 0;
#X connect 11 0 20 0;
#X connect 13 0 11 0;
#X connect 14 0 15 0;
#X connect 14 0 23 0;
#X connect 16 0 17 0;
#X connect 17 0 14 0;
#X connect 19 0 18 0;
#X connect 20 0 16 0;
#X connect 21 0 22 0;
#X connect 23 0 21 0;
#X connect 24 0 2 0;
#X connect 25 0 0 0;
#X connect 26 0 27 0;
#X connect 27 0 7 0;
#X connect 28 0 29 0;
#X connect 29 0 19 0;
#X restore 98 90 pd sCPU;
#N canvas 42 109 758 394 sSamples 0;
#X obj 12 -179 r sFirefox;
#X obj 143 -178 r sGedit;
#X obj 251 -178 r sTerminal;
#X obj 13 -84 s osc_packer;
#X msg 12 -116 send /sFirefox \$1;
#X obj 144 -82 s osc_packer;
#X msg 143 -114 send /sGedit \$1;
#X obj 254 -82 s osc_packer;
#X msg 253 -114 send /sTerminal \$1;
#X obj 383 -82 s osc_packer;
#X obj 382 -178 r sGimp;
#X msg 382 -114 send /sGimp \$1;
#X obj 13 46 s osc_packer;
#X floatatom 12 -17 5 0 0 0 - - -;
#X obj 164 48 s osc_packer;
#X floatatom 163 -15 5 0 0 0 - - -;
#X obj 294 48 s osc_packer;
#X floatatom 293 -15 5 0 0 0 - - -;
#X obj 413 48 s osc_packer;
#X floatatom 412 -15 5 0 0 0 - - -;
#X obj 12 -49 r synthfirefox;
#X obj 163 -48 r synthGedit;
#X obj 291 -48 r synthXorg;
#X obj 412 -48 r delayXorg;
#X obj 543 48 s osc_packer;
#X floatatom 542 -15 5 0 0 0 - - -;
#X obj 542 -48 r delayGimp;
#X msg 12 14 send /synthFirefox \$1;
#X msg 161 16 send /synthGedit \$1;
#X msg 293 16 send /synthXorg \$1;
#X msg 412 16 send /delayXorg \$1;
#X msg 542 16 send /delayGimp \$1;
#X obj 13 188 s osc_packer;
#X floatatom 12 125 5 0 0 0 - - -;
#X obj 12 92 r synthHald;
#X msg 12 156 send /synthHald \$1;
#X obj 163 188 s osc_packer;
#X floatatom 162 125 5 0 0 0 - - -;
#X obj 162 92 r synthFind;
#X msg 162 156 send /synthFind \$1;
#X obj 12 -145 bng 15 250 50 0 empty empty empty 17 7 0 10 -262144
-1 -1;
#X obj 142 -145 bng 15 250 50 0 empty empty empty 17 7 0 10 -262144
-1 -1;
#X obj 252 -143 bng 15 250 50 0 empty empty empty 17 7 0 10 -262144
-1 -1;
#X obj 382 -145 bng 15 250 50 0 empty empty empty 17 7 0 10 -262144
-1 -1;
#X connect 0 0 40 0;
#X connect 1 0 41 0;
#X connect 2 0 42 0;
#X connect 4 0 3 0;
#X connect 6 0 5 0;
#X connect 8 0 7 0;
#X connect 10 0 43 0;
#X connect 11 0 9 0;
#X connect 13 0 27 0;
#X connect 15 0 28 0;
#X connect 17 0 29 0;
#X connect 19 0 30 0;
#X connect 20 0 13 0;
#X connect 21 0 15 0;
#X connect 22 0 17 0;
#X connect 23 0 19 0;
#X connect 25 0 31 0;
#X connect 26 0 25 0;
#X connect 27 0 12 0;
#X connect 28 0 14 0;
#X connect 29 0 16 0;
#X connect 30 0 18 0;
#X connect 31 0 24 0;
#X connect 33 0 35 0;
#X connect 34 0 33 0;
#X connect 35 0 32 0;
#X connect 37 0 39 0;
#X connect 38 0 37 0;
#X connect 39 0 36 0;
#X connect 40 0 4 0;
#X connect 41 0 6 0;
#X connect 42 0 8 0;
#X connect 43 0 11 0;
#X restore 97 63 pd sSamples;
#N canvas 0 0 623 391 sProcess 0;
#X obj 79 154 s osc_packer;
#X obj 80 67 r on1;
#X msg 79 122 send /on1 \$1;
#X obj 169 156 s osc_packer;
#X obj 259 156 s osc_packer;
#X obj 80 298 s osc_packer;
#X obj 180 298 s osc_packer;
#X obj 280 298 s osc_packer;
#X obj 280 203 r off3;
#X msg 280 266 send /off3 \$1;
#X obj 79 99 bng 15 250 50 0 empty empty empty 17 7 0 10 -262144 -1
-1;
#X obj 169 99 bng 15 250 50 0 empty empty empty 17 7 0 10 -262144 -1
-1;
#X obj 259 99 bng 15 250 50 0 empty empty empty 17 7 0 10 -262144 -1
-1;
#X obj 80 235 bng 15 250 50 0 empty empty empty 17 7 0 10 -262144 -1
-1;
#X obj 180 235 bng 15 250 50 0 empty empty empty 17 7 0 10 -262144
-1 -1;
#X obj 280 235 bng 15 250 50 0 empty empty empty 17 7 0 10 -262144
-1 -1;
#X obj 170 67 r on2;
#X obj 260 67 r on3;
#X obj 80 203 r off1;
#X obj 180 203 r off2;
#X msg 169 124 send /on2 \$1;
#X msg 259 125 send /on3 \$1;
#X msg 80 266 send /off1 \$1;
#X msg 180 266 send /off2 \$1;
#X obj 380 298 s osc_packer;
#X obj 380 235 bng 15 250 50 0 empty empty empty 17 7 0 10 -262144
-1 -1;
#X msg 380 266 send /off4 \$1;
#X obj 380 203 r off4;
#X obj 353 156 s osc_packer;
#X obj 353 99 bng 15 250 50 0 empty empty empty 17 7 0 10 -262144 -1
-1;
#X obj 354 67 r on4;
#X msg 353 124 send /on4 \$1;
#X obj 463 156 s osc_packer;
#X obj 463 99 bng 15 250 50 0 empty empty empty 17 7 0 10 -262144 -1
-1;
#X obj 464 67 r on5;
#X msg 463 124 send /on5 \$1;
#X obj 479 298 s osc_packer;
#X obj 479 235 bng 15 250 50 0 empty empty empty 17 7 0 10 -262144
-1 -1;
#X obj 479 203 r off5;
#X msg 479 268 send /off5 \$1;
#X connect 1 0 10 0;
#X connect 2 0 0 0;
#X connect 8 0 15 0;
#X connect 9 0 7 0;
#X connect 10 0 2 0;
#X connect 11 0 20 0;
#X connect 12 0 21 0;
#X connect 13 0 22 0;
#X connect 14 0 23 0;
#X connect 15 0 9 0;
#X connect 16 0 11 0;
#X connect 17 0 12 0;
#X connect 18 0 13 0;
#X connect 19 0 14 0;
#X connect 20 0 3 0;
#X connect 21 0 4 0;
#X connect 22 0 5 0;
#X connect 23 0 6 0;
#X connect 25 0 26 0;
#X connect 26 0 24 0;
#X connect 27 0 25 0;
#X connect 29 0 31 0;
#X connect 30 0 29 0;
#X connect 31 0 28 0;
#X connect 33 0 35 0;
#X connect 34 0 33 0;
#X connect 35 0 32 0;
#X connect 37 0 39 0;
#X connect 38 0 37 0;
#X connect 39 0 36 0;
#X restore 98 115 pd sProcess;
#X msg -202 176 connect localhost 9002;
#X connect 4 0 3 0;
#X connect 5 0 15 0;
#X connect 6 0 3 0;
#X connect 7 0 6 0;
#X connect 8 0 9 0;
#X connect 9 0 15 0;
#X connect 10 0 11 0;
#X connect 11 0 4 0;
#X connect 15 0 3 0;
#X restore 203 2 pd panic;
#X obj -131 209 nbx 5 30 -1e+37 1e+37 0 0 empty syn-User empty 0 -8
0 30 -257985 -1 -1 0.41 256;
#X obj -121 172 cnv 5 80 30 empty empty kUser 10 15 0 30 -192048 -1
0;
#X obj 49 209 nbx 5 30 -1e+37 1e+37 0 0 empty syn-System empty 0 -8
0 30 -257985 -1 -1 0.07 256;
#X obj 53 172 cnv 5 80 30 empty empty kSystem 10 15 0 30 -192048 -1
0;
#X obj 229 209 nbx 5 30 -1e+37 1e+37 0 0 empty syn-Idle empty 0 -8
0 30 -257985 -1 -1 140 256;
#X obj 233 172 cnv 5 80 30 empty empty kIdle 10 15 0 30 -192048 -1
0;
#X obj -121 92 hsl 130 30 0 1 0 0 sKUser empty sKUser 0 -15 0 30 -4034
-1 -1 11200 1;
#X obj 12 92 nbx 3 30 -1e+37 1e+37 0 0 empty sKUser empty 0 -8 0 30
-204800 -1 -1 0.868217 256;
#N canvas 199 6 665 523 audio 0;
#X obj 36 186 syn-xfm;
#X obj 32 465 dac~;
#X obj 36 388 st-delayfb;
#X obj 37 322 st-FFTnoisereduce;
#X msg -77 68 \; pd dsp \$1;
#X obj -77 33 inlet;
#X floatatom 36 56 5 0 0 0 - - -;
#X obj 36 80 mtof;
#X floatatom 36 101 7 0 0 0 - - -;
#X obj 35 24 r synthKUser;
#N canvas 0 6 991 523 orquestra 0;
#X obj 275 426 fluid~;
#X obj 350 335 openpanel;
#X obj 350 298 bng 15 250 50 0 empty empty empty 17 7 0 10 -262144
-1 -1;
#X msg 350 369 load \$1;
#X obj 268 472 ezdac~;
#X msg 186 325 prog 1 \$1;
#X floatatom 186 295 5 0 0 0 - - -;
#X obj 129 104 list-dripslow;
#X floatatom 128 138 5 0 0 0 - - -;
#X obj 210 145 bng 15 250 50 0 empty empty empty 17 7 0 10 -262144
-1 -1;
#X msg 250 362 note 1 \$1 127;
#X msg 204 66 62 64 78 80;
#X obj 128 29 bng 15 250 50 0 empty empty empty 17 7 0 10 -262144 -1
-1;
#X msg 148 15 stop;
#X obj 282 248 prepend set;
#X msg 310 168 60 63 70 72;
#X msg 302 110 48 52 60 74;
#X obj 56 362 counter 3;
#X floatatom 57 392 5 0 0 0 - - -;
#X obj 51 428 select 1 2 3;
#X msg 309 142 60 62 72 76;
#X floatatom 468 117 5 0 0 0 - - -;
#X obj 468 146 sel 1;
#X obj 468 253 bng 15 250 50 0 empty empty empty 17 7 0 10 -262144
-1 -1;
#X obj 468 220 change 1;
#X obj 495 171 bng 15 250 50 0 empty empty empty 17 7 0 10 -262144
-1 -1;
#X obj 468 9 r syn-User;
#X floatatom 468 45 5 0 0 0 - - -;
#X floatatom 558 117 5 0 0 0 - - -;
#X obj 558 146 sel 1;
#X obj 558 253 bng 15 250 50 0 empty empty empty 17 7 0 10 -262144
-1 -1;
#X obj 558 220 change 1;
#X obj 585 171 bng 15 250 50 0 empty empty empty 17 7 0 10 -262144
-1 -1;
#X msg 294 85 62 64 78 80;
#X obj 813 98 bng 15 250 50 0 empty empty empty 17 7 0 10 -262144 -1
-1;
#X obj 833 98 bng 15 250 50 0 empty empty empty 17 7 0 10 -262144 -1
-1;
#X obj 853 98 bng 15 250 50 0 empty empty empty 17 7 0 10 -262144 -1
-1;
#X obj 813 64 select 1 2 3 4;
#X obj 873 97 bng 15 250 50 0 empty empty empty 17 7 0 10 -262144 -1
-1;
#X text 825 49 comment;
#X obj 813 33 r statusProcessos;
#X msg 353 398 load /home/brazileiro/audio/soundfonts/AI-APiano02trans.SF2
;
#X obj 468 83 < 0.6;
#X obj 558 85 > 0.7;
#X msg 311 194 48 60 72 76;
#X msg 312 220 50 63 78 72;
#X obj 129 60 metro 250;
#X obj 42 7 r sPiano;
#X obj 186 11 r vPiano250;
#X obj 264 12 r vPiano500;
#X msg 179 36 250;
#X msg 209 36 500;
#X floatatom 42 33 5 0 0 0 - - -;
#X obj 43 60 sel 1;
#X obj 10 106 r syn-Idle;
#X floatatom 10 138 5 0 0 0 - - -;
#X obj 10 170 < 100;
#X obj 10 197 sel 1;
#X connect 0 0 4 0;
#X connect 0 1 4 1;
#X connect 1 0 3 0;
#X connect 2 0 1 0;
#X connect 3 0 0 0;
#X connect 5 0 0 0;
#X connect 6 0 5 0;
#X connect 7 0 8 0;
#X connect 7 1 9 0;
#X connect 8 0 10 0;
#X connect 9 0 11 0;
#X connect 10 0 0 0;
#X connect 11 0 7 1;
#X connect 12 0 46 0;
#X connect 13 0 46 0;
#X connect 14 0 11 0;
#X connect 15 0 14 0;
#X connect 16 0 14 0;
#X connect 17 0 18 0;
#X connect 18 0 19 0;
#X connect 20 0 14 0;
#X connect 21 0 22 0;
#X connect 22 0 24 0;
#X connect 22 1 25 0;
#X connect 23 0 33 0;
#X connect 24 0 23 0;
#X connect 26 0 27 0;
#X connect 27 0 42 0;
#X connect 27 0 43 0;
#X connect 28 0 29 0;
#X connect 29 0 31 0;
#X connect 29 1 32 0;
#X connect 30 0 16 0;
#X connect 31 0 30 0;
#X connect 33 0 14 0;
#X connect 34 0 20 0;
#X connect 35 0 15 0;
#X connect 36 0 44 0;
#X connect 37 0 34 0;
#X connect 37 1 35 0;
#X connect 37 2 36 0;
#X connect 37 3 38 0;
#X connect 38 0 45 0;
#X connect 40 0 37 0;
#X connect 41 0 0 0;
#X connect 42 0 21 0;
#X connect 43 0 28 0;
#X connect 44 0 14 0;
#X connect 45 0 14 0;
#X connect 46 0 7 0;
#X connect 47 0 52 0;
#X connect 48 0 50 0;
#X connect 49 0 51 0;
#X connect 50 0 46 1;
#X connect 51 0 46 1;
#X connect 52 0 53 0;
#X connect 53 0 12 0;
#X connect 53 1 13 0;
#X connect 54 0 55 0;
#X connect 55 0 56 0;
#X connect 56 0 57 0;
#X connect 57 0 12 0;
#X connect 57 1 13 0;
#X restore -93 163 pd orquestra;
#X obj 156 4 r syn-System;
#X floatatom 156 33 5 0 0 0 - - -;
#X obj 156 111 *;
#X obj 171 55 r dSystem;
#X floatatom 171 79 5 0 0 0 - - -;
#X floatatom 156 136 5 0 0 0 - - -;
#X msg 156 159 2 \$1;
#X connect 0 0 3 0;
#X connect 2 0 1 0;
#X connect 2 0 1 1;
#X connect 3 0 2 0;
#X connect 5 0 4 0;
#X connect 6 0 7 0;
#X connect 7 0 8 0;
#X connect 8 0 0 0;
#X connect 9 0 6 0;
#X connect 11 0 12 0;
#X connect 12 0 13 0;
#X connect 13 0 16 0;
#X connect 14 0 15 0;
#X connect 15 0 13 1;
#X connect 16 0 17 0;
#X connect 17 0 0 1;
#X restore 783 -6 pd audio;
#X obj 783 -45 tgl 30 0 empty empty empty 17 7 0 10 -260097 -1 -1 0
1;
#X obj 629 54 hsl 130 30 0 100 0 0 synthSet empty synthSet_User 0 -15
0 30 -204786 -1 -1 8400 1;
#X obj 762 54 nbx 3 30 -1e+37 1e+37 0 0 empty synthSet empty 0 -8 0
30 -204800 -1 -1 65.1163 256;
#X obj -80 -129 cnv 5 80 30 empty empty EmotionalKernelPanic 10 15
0 30 -192048 -1 0;
#X text -143 318 Mapeamento do Kernel Linux Processamento de Samples
;
#X text -142 334 RICARDO BRAZILEIRO - rbrazileiro at gmail dot com
ArtLicence - Copyleft;
#X obj 629 128 hsl 130 30 0 1 0 0 fA empty feedbackA 0 -15 0 30 -13330
-1 -1 8600 1;
#X obj 762 128 nbx 3 30 -1e+37 1e+37 0 0 empty fA empty 0 -8 0 30 -204800
-1 -1 0.666667 256;
#X obj 629 198 hsl 130 30 0 1 0 0 fB empty feedbackB 0 -15 0 30 -4032
-1 -1 7000 1;
#X obj 762 198 nbx 3 30 -1e+37 1e+37 0 0 empty fB empty 0 -8 0 30 -204800
-1 -1 0.542636 256;
#X obj 145 92 hradio 30 1 0 6 dSystem empty sKSystem 0 -15 0 30 -4034
-1 -1 4;
#X obj 776 272 bng 30 250 50 0 vPiano500 empty vPiano-500 -1 -7 0 10
-260097 -1 -1;
#X obj 776 319 bng 30 250 50 0 vPiano250 empty vPiano-250 -1 -7 0 10
-258113 -1 -1;
#X obj 753 231 cnv 5 80 30 empty empty ePiano 10 15 0 20 -192048 -1
0;
#X connect 1 0 23 0;
#X connect 2 0 23 1;
#X connect 5 0 22 0;
#X connect 6 0 22 1;
#X connect 19 0 25 0;
#X connect 20 0 25 1;
#X connect 35 0 34 0;
