#N canvas 500 88 560 430 10;
#X declare -lib mrpeach/routeOSC;
#X declare -lib mrpeach/udpreceive;
#X declare -lib mrpeach/unpackOSC;
#X text -149 164 EMOTIONAL KERNEL PANIC;
#X text 285 -111 CONTROLES;
#X text -150 175 Mapeamento do Kernel Linux Processamento de Samples
e Imagens;
#X text -150 204 RICARDO BRAZILEIRO - rbrazileiro at gmail dot com
;
#X text 22 -175 EMOTIONAL KERNEL PANIC;
#N canvas 0 0 991 502 emotional 0;
#X msg 231 176 offset 800 0;
#X msg 230 200 dimen 800 600;
#X obj 37 25 inlet;
#X obj 156 86 inlet;
#X obj 386 448 pix_kaleidoscope;
#X obj 386 478 pix_texture;
#X obj 412 420 r cpu3;
#X obj 399 391 r cpu1;
#X floatatom 431 511 5 0 0 0 - - -;
#X obj 79 189 gemwin;
#X msg 79 117 create \, 1;
#X msg 156 117 destroy;
#X obj 386 363 rotateXYZ;
#X obj 403 286 r cpu2;
#X obj 420 312 r cpu4;
#X obj 437 337 r cpu5;
#X obj 516 79 gemhead;
#X obj 516 54 tgl 15 0 empty empty empty 17 7 0 10 -262144 -1 -1 1
1;
#X obj 666 109 gemhead;
#X obj 666 84 tgl 15 0 empty empty empty 17 7 0 10 -262144 -1 -1 1
1;
#X obj 386 126 pix_add;
#X obj 386 156 pix_add;
#X obj 1074 199 gemhead;
#X obj 1074 174 tgl 15 0 empty empty empty 17 7 0 10 -262144 -1 -1
0 1;
#X obj 386 47 gemhead;
#X obj 386 186 pix_add;
#X obj 386 216 pix_add;
#X obj 386 246 pix_add;
#X obj 796 139 gemhead;
#X obj 796 114 tgl 15 0 empty empty empty 17 7 0 10 -262144 -1 -1 0
1;
#X obj 916 169 gemhead;
#X obj 916 144 tgl 15 0 empty empty empty 17 7 0 10 -262144 -1 -1 1
1;
#X obj 386 540 circle 4;
#X obj 516 109 pix_image vermelhoB.tif;
#X obj 666 139 pix_image verdeB.tif;
#X obj 796 169 pix_image roxoB.tif;
#X obj 386 92 pix_image alphaB.tif;
#X msg 284 118 lighting 0;
#X msg 219 118 border 0;
#X obj 37 62 s pre;
#X obj 277 83 r pre;
#X obj 79 62 delay 2000;
#X obj 516 29 r state01;
#X obj 666 59 r state02;
#X obj 796 80 r state03;
#X obj 916 112 r state04;
#X obj 1074 142 r state05;
#N canvas 0 0 763 223 states 0;
#X obj 35 60 r onM1;
#X obj 81 60 r offM1;
#X obj 142 61 r onM2;
#X obj 193 62 r offM2;
#X obj 253 63 r onM3;
#X obj 308 62 r offM3;
#X obj 473 65 r onM5;
#X obj 525 66 r offM5;
#X obj 415 64 r offM4;
#X obj 365 63 r onM4;
#X msg 35 94 1;
#X msg 142 97 1;
#X msg 253 99 1;
#X msg 365 99 1;
#X msg 473 101 1;
#X msg 525 102 0;
#X msg 415 98 0;
#X msg 308 100 0;
#X msg 193 99 0;
#X msg 81 95 0;
#X obj 35 134 s state01;
#X obj 142 134 s state02;
#X obj 253 134 s state03;
#X text 182 13 Estados dos Processos // liga-desliga mandalas;
#X obj 365 134 s state04;
#X obj 473 134 s state05;
#X obj 691 73 r pre;
#X msg 691 105 0;
#X obj 691 136 s offALL;
#X obj 555 189 r offALL;
#X connect 0 0 10 0;
#X connect 1 0 19 0;
#X connect 2 0 11 0;
#X connect 3 0 18 0;
#X connect 4 0 12 0;
#X connect 5 0 17 0;
#X connect 6 0 14 0;
#X connect 7 0 15 0;
#X connect 8 0 16 0;
#X connect 9 0 13 0;
#X connect 10 0 20 0;
#X connect 11 0 21 0;
#X connect 12 0 22 0;
#X connect 13 0 24 0;
#X connect 14 0 25 0;
#X connect 15 0 25 0;
#X connect 16 0 24 0;
#X connect 17 0 22 0;
#X connect 18 0 21 0;
#X connect 19 0 20 0;
#X connect 26 0 27 0;
#X connect 27 0 28 0;
#X connect 29 0 20 0;
#X connect 29 0 21 0;
#X connect 29 0 22 0;
#X connect 29 0 24 0;
#X connect 29 0 25 0;
#X restore 53 350 pd states;
#X obj 1074 229 pix_image pretoB.tif;
#X obj 916 199 pix_image azulclaroB.tif;
#X connect 2 0 39 0;
#X connect 2 0 41 0;
#X connect 3 0 11 0;
#X connect 4 0 5 0;
#X connect 5 0 32 0;
#X connect 6 0 4 2;
#X connect 7 0 4 1;
#X connect 8 0 32 1;
#X connect 10 0 9 0;
#X connect 11 0 9 0;
#X connect 12 0 4 0;
#X connect 13 0 12 1;
#X connect 14 0 12 2;
#X connect 15 0 12 3;
#X connect 16 0 33 0;
#X connect 17 0 16 0;
#X connect 18 0 34 0;
#X connect 19 0 18 0;
#X connect 20 0 21 0;
#X connect 21 0 25 0;
#X connect 22 0 48 0;
#X connect 23 0 22 0;
#X connect 24 0 36 0;
#X connect 25 0 26 0;
#X connect 26 0 27 0;
#X connect 27 0 12 0;
#X connect 28 0 35 0;
#X connect 29 0 28 0;
#X connect 30 0 49 0;
#X connect 31 0 30 0;
#X connect 33 0 20 1;
#X connect 34 0 21 1;
#X connect 35 0 25 1;
#X connect 36 0 20 0;
#X connect 37 0 9 0;
#X connect 38 0 9 0;
#X connect 40 0 38 0;
#X connect 40 0 37 0;
#X connect 41 0 10 0;
#X connect 42 0 17 0;
#X connect 43 0 19 0;
#X connect 44 0 29 0;
#X connect 45 0 31 0;
#X connect 46 0 23 0;
#X connect 48 0 27 1;
#X connect 49 0 26 1;
#X restore -60 2 pd emotional;
#N canvas 411 186 613 363 recebe_dados 0;
#X obj 20 317 import mrpeach/routeOSC;
#X obj 21 272 import mrpeach/udpreceive;
#X obj 20 295 import mrpeach/unpackOSC;
#X obj 171 106 unpackOSC;
#X obj 171 74 udpreceive 9002;
#X obj 95 176 s rSamples;
#N canvas 448 87 564 300 rCPU 0;
#X floatatom -447 146 5 0 0 0 - - -;
#X floatatom -328 149 5 0 0 0 - - -;
#X floatatom -219 150 5 0 0 0 - - -;
#X obj -447 98 routeOSC /cpu1;
#X obj -328 97 routeOSC /cpu2;
#X obj -219 98 routeOSC /cpu3;
#X obj -328 234 s cpu2;
#X obj -447 233 s cpu1;
#X obj -219 239 s cpu3;
#X floatatom -119 150 5 0 0 0 - - -;
#X floatatom -9 150 5 0 0 0 - - -;
#X obj -119 98 routeOSC /cpu4;
#X obj -119 239 s cpu4;
#X obj -9 239 s cpu5;
#X obj -9 98 routeOSC /cpu5;
#X obj -213 29 r rCPU;
#X obj -447 202 -;
#X obj -432 175 r controle;
#X obj -328 202 -;
#X obj -313 175 r controle;
#X obj -219 202 -;
#X obj -204 175 r controle;
#X obj -119 202 -;
#X obj -104 175 r controle;
#X obj -9 202 -;
#X obj 6 175 r controle;
#X connect 0 0 16 0;
#X connect 1 0 18 0;
#X connect 2 0 20 0;
#X connect 3 0 0 0;
#X connect 4 0 1 0;
#X connect 5 0 2 0;
#X connect 9 0 22 0;
#X connect 10 0 24 0;
#X connect 11 0 9 0;
#X connect 14 0 10 0;
#X connect 15 0 3 0;
#X connect 15 0 4 0;
#X connect 15 0 5 0;
#X connect 15 0 11 0;
#X connect 15 0 14 0;
#X connect 16 0 7 0;
#X connect 17 0 16 1;
#X connect 18 0 6 0;
#X connect 19 0 18 1;
#X connect 20 0 8 0;
#X connect 21 0 20 1;
#X connect 22 0 12 0;
#X connect 23 0 22 1;
#X connect 24 0 13 0;
#X connect 25 0 24 1;
#X restore 348 98 pd rCPU;
#N canvas 231 192 793 408 rProcessos 0;
#X obj 121 82 routeOSC /on1;
#X obj 113 263 routeOSC /off1;
#X obj 219 82 routeOSC /on2;
#X obj 212 264 routeOSC /off2;
#X obj 324 84 routeOSC /on3;
#X obj 315 266 routeOSC /off3;
#X obj 121 159 s onM1;
#X obj 113 341 s offM1;
#X obj 219 163 s onM2;
#X obj 212 342 s offM2;
#X obj 324 162 s onM3;
#X obj 315 342 s offM3;
#X obj 121 123 bng 15 250 50 0 empty empty empty 17 7 0 10 -262144
-1 -1;
#X obj 113 306 bng 15 250 50 0 empty empty empty 17 7 0 10 -262144
-1 -1;
#X obj 219 130 bng 15 250 50 0 empty empty empty 17 7 0 10 -262144
-1 -1;
#X obj 212 312 bng 15 250 50 0 empty empty empty 17 7 0 10 -262144
-1 -1;
#X obj 324 130 bng 15 250 50 0 empty empty empty 17 7 0 10 -262144
-1 -1;
#X obj 315 310 bng 15 250 50 0 empty empty empty 17 7 0 10 -262144
-1 -1;
#X obj 513 127 bng 15 250 50 0 empty empty empty 17 7 0 10 -262144
-1 -1;
#X obj 523 312 bng 15 250 50 0 empty empty empty 17 7 0 10 -262144
-1 -1;
#X obj 417 129 bng 15 250 50 0 empty empty empty 17 7 0 10 -262144
-1 -1;
#X obj 419 309 bng 15 250 50 0 empty empty empty 17 7 0 10 -262144
-1 -1;
#X obj 417 84 routeOSC /on4;
#X obj 417 163 s onM4;
#X obj 419 343 s offM4;
#X obj 419 268 routeOSC /off4;
#X obj 513 85 routeOSC /on5;
#X obj 523 270 routeOSC /off5;
#X obj 523 343 s offM5;
#X obj 513 164 s onM5;
#X obj 337 14 r rProcessos;
#X connect 0 0 12 0;
#X connect 1 0 13 0;
#X connect 2 0 14 0;
#X connect 3 0 15 0;
#X connect 4 0 16 0;
#X connect 5 0 17 0;
#X connect 12 0 6 0;
#X connect 13 0 7 0;
#X connect 14 0 8 0;
#X connect 15 0 9 0;
#X connect 16 0 10 0;
#X connect 17 0 11 0;
#X connect 18 0 29 0;
#X connect 19 0 28 0;
#X connect 20 0 23 0;
#X connect 21 0 24 0;
#X connect 22 0 20 0;
#X connect 25 0 21 0;
#X connect 26 0 18 0;
#X connect 27 0 19 0;
#X connect 30 0 0 0;
#X connect 30 0 2 0;
#X connect 30 0 4 0;
#X connect 30 0 22 0;
#X connect 30 0 26 0;
#X connect 30 0 1 0;
#X connect 30 0 3 0;
#X connect 30 0 5 0;
#X connect 30 0 25 0;
#X connect 30 0 27 0;
#X restore 348 122 pd rProcessos;
#X obj 171 178 s rProcessos;
#X obj 258 178 s rCPU;
#X text 355 76 CONTROLES;
#X text 175 42 RECEBE EVENTOS;
#X connect 3 0 5 0;
#X connect 3 0 8 0;
#X connect 3 0 9 0;
#X connect 4 0 3 0;
#X restore 279 -91 pd recebe_dados;
#X obj -60 -49 bng 30 250 50 0 empty empty empty 17 7 0 10 -4034 -1
-1;
#X obj 9 -48 bng 30 250 50 0 empty empty empty 17 7 0 10 -258113 -1
-1;
#X text -70 -87 MULTIMIDIA (GEM+SAMPLES);
#X obj -59 53 nbx 5 14 -1e+37 1e+37 0 0 controle empty empty 0 -8 0
20 -262144 -1 -1 26 256;
#X text -63 31 CONTROLE DA MANDALA;
#X connect 7 0 5 0;
#X connect 8 0 5 1;
