#N canvas 0 0 450 300 10;
#X msg 180 -8 top -n 1 -b |grep firefox;
#X obj 374 25 shell;
#X obj 308 53 pack f s f f s s s s f f s s;
#X obj 309 89 unpack f s f f s s s s f f s s;
#X floatatom 234 147 5 0 0 0 - - -;
#X symbolatom 273 147 10 0 0 0 - - -;
#X floatatom 343 148 5 0 0 0 - - -;
#X floatatom 383 148 5 0 0 0 - - -;
#X symbolatom 423 149 10 0 0 0 - - -;
#X symbolatom 424 175 10 0 0 0 - - -;
#X symbolatom 424 203 10 0 0 0 - - -;
#X symbolatom 426 228 10 0 0 0 - - -;
#X floatatom 430 265 5 0 0 0 - - -;
#X floatatom 474 266 5 0 0 0 - - -;
#X symbolatom 530 97 10 0 0 0 - - -;
#X symbolatom 498 148 10 0 0 0 - - -;
#X text 420 249 CPUINFO;
#X obj 90 -153 bng 15 250 50 0 empty empty empty 17 7 0 10 -262144
-1 -1;
#X obj 205 -97 bng 15 250 50 0 empty empty empty 17 7 0 10 -262144
-1 -1;
#X floatatom 191 -155 5 0 0 0 - - -;
#X msg 130 -155 stop;
#X obj 281 181 s topCPU;
#X msg 349 -9 top -n 1 -b |grep gedit;
#X obj 278 -46 bng 15 250 50 0 empty empty empty 17 7 0 10 -262144
-1 -1;
#X obj 323 -44 bng 15 250 50 0 empty empty empty 17 7 0 10 -262144
-1 -1;
#X obj 274 -107 random 3;
#X obj 295 -72 select 0 1 2;
#X obj 361 -42 bng 15 250 50 0 empty empty empty 17 7 0 10 -262144
-1 -1;
#X msg 505 -6 top -n 1 -b |grep terminal;
#X obj 125 -121 metro 2000;
#X obj 11 -122 inlet;
#X obj 55 -98 inlet;
#X text 392 -170 TOP;
#X text 473 245 MEMORIA;
#X obj 500 175 s prog;
#X obj 31 143 r prog;
#X symbolatom 29 167 10 0 0 0 - - -;
#X obj 152 202 sel firefox;
#X obj 75 203 sel gedit;
#X obj -47 202 sel gnome-terminal;
#X obj 151 236 bng 15 250 50 0 empty empty empty 17 7 0 10 -262144
-1 -1;
#X obj -59 308 s topTerminal;
#X obj 52 296 s topGedit;
#X obj 154 295 s topFirefox;
#X obj 413 299 s cpuINFO;
#X floatatom -32 260 5 0 0 0 - - -;
#X obj 69 232 bng 15 250 50 0 empty empty empty 17 7 0 10 -262144 -1
-1;
#X floatatom 67 266 5 0 0 0 - - -;
#X floatatom 156 269 5 0 0 0 - - -;
#X connect 0 0 1 0;
#X connect 1 0 2 0;
#X connect 2 0 3 0;
#X connect 3 0 4 0;
#X connect 3 1 5 0;
#X connect 3 2 6 0;
#X connect 3 3 7 0;
#X connect 3 4 8 0;
#X connect 3 5 9 0;
#X connect 3 6 10 0;
#X connect 3 7 11 0;
#X connect 3 8 12 0;
#X connect 3 9 13 0;
#X connect 3 10 14 0;
#X connect 3 11 15 0;
#X connect 12 0 44 0;
#X connect 15 0 34 0;
#X connect 17 0 29 0;
#X connect 18 0 25 0;
#X connect 19 0 29 1;
#X connect 20 0 29 0;
#X connect 22 0 1 0;
#X connect 23 0 0 0;
#X connect 24 0 22 0;
#X connect 25 0 26 0;
#X connect 26 0 23 0;
#X connect 26 1 24 0;
#X connect 26 2 27 0;
#X connect 27 0 28 0;
#X connect 28 0 1 0;
#X connect 29 0 18 0;
#X connect 30 0 17 0;
#X connect 31 0 20 0;
#X connect 35 0 36 0;
#X connect 36 0 39 0;
#X connect 36 0 38 0;
#X connect 36 0 37 0;
#X connect 37 0 40 0;
#X connect 38 0 46 0;
#X connect 40 0 48 0;
#X connect 45 0 41 0;
#X connect 46 0 47 0;
#X connect 47 0 42 0;
#X connect 48 0 43 0;
