#N canvas 119 76 560 430 10;
#X declare -lib iem_tab;
#X declare -lib tof;
#X declare -lib iem_tab;
#X declare -lib tof;
#N canvas 2 16 818 467 mapsound 0;
#X obj 47 69 r mapProcessos;
#X floatatom 47 98 5 0 0 0 - - -;
#X obj 38 182 bng 15 250 50 0 empty empty empty 17 7 0 10 -262144 -1
-1;
#X obj 78 184 bng 15 250 50 0 empty empty empty 17 7 0 10 -262144 -1
-1;
#X obj 119 186 bng 15 250 50 0 empty empty empty 17 7 0 10 -262144
-1 -1;
#X text 16 201 FIREFOX;
#X text 67 204 GEDIT;
#X text 106 13 MAPA SONORO DO KERNEL;
#X text 58 35 PROCESSOS;
#X floatatom 542 111 5 0 0 0 - - -;
#X floatatom 503 279 5 0 0 0 - - -;
#X floatatom 442 108 5 0 0 0 - - -;
#X text 421 37 CPU;
#X floatatom 542 111 5 0 0 0 - - -;
#X floatatom 329 107 5 0 0 0 - - -;
#X floatatom 442 108 5 0 0 0 - - -;
#X obj 329 71 r cpuFirefox;
#X floatatom 331 289 5 0 0 0 - - -;
#X obj 326 249 r memFirefox;
#X floatatom 422 290 5 0 0 0 - - -;
#X obj 416 248 r memGedit;
#X text 417 224 MEMÓRIA;
#X obj 19 238 s sFirefox;
#X obj 90 239 s sGedit;
#X obj 148 239 s sTerminal;
#X obj 296 146 autoscale 0.2 0.9;
#X floatatom 303 172 5 0 0 0 - - -;
#X obj 414 148 autoscale 0.2 0.9;
#X floatatom 418 177 5 0 0 0 - - -;
#X obj 297 203 s synthFirefox;
#X obj 414 202 s synthGedit;
#X obj 536 147 autoscale 0.2 0.9;
#X floatatom 537 173 5 0 0 0 - - -;
#X obj 534 202 s synthXorg;
#X obj 439 69 r cpuGedit;
#X obj 540 71 r cpuXorg;
#X obj 502 250 r memXorg;
#X obj 521 369 s delayXorg;
#X obj 523 305 autoscale 0.2 0.9;
#X floatatom 524 333 5 0 0 0 - - -;
#X obj 43 142 select 1 2 3 4;
#X obj 167 186 bng 15 250 50 0 empty empty empty 17 7 0 10 -262144
-1 -1;
#X text 161 204 JACKD;
#X text 113 204 TERMINAL;
#X obj 228 239 s sGimp;
#X floatatom 643 279 5 0 0 0 - - -;
#X obj 663 305 autoscale 0.2 0.9;
#X floatatom 664 333 5 0 0 0 - - -;
#X obj 642 250 r memGimp;
#X obj 661 369 s delayGimp;
#X connect 0 0 1 0;
#X connect 1 0 40 0;
#X connect 2 0 22 0;
#X connect 3 0 23 0;
#X connect 4 0 24 0;
#X connect 9 0 31 0;
#X connect 10 0 38 0;
#X connect 11 0 27 0;
#X connect 14 0 25 0;
#X connect 16 0 14 0;
#X connect 18 0 17 0;
#X connect 20 0 19 0;
#X connect 25 0 26 0;
#X connect 26 0 29 0;
#X connect 27 0 28 0;
#X connect 28 0 30 0;
#X connect 31 0 32 0;
#X connect 32 0 33 0;
#X connect 34 0 11 0;
#X connect 35 0 9 0;
#X connect 36 0 10 0;
#X connect 38 0 39 0;
#X connect 39 0 37 0;
#X connect 40 0 2 0;
#X connect 40 1 3 0;
#X connect 40 2 4 0;
#X connect 40 3 41 0;
#X connect 41 0 44 0;
#X connect 45 0 46 0;
#X connect 46 0 47 0;
#X connect 47 0 49 0;
#X connect 48 0 45 0;
#X restore -97 -79 pd mapsound;
#N canvas 25 6 964 476 samples 0;
#X obj 259 367 st-delayfb;
#X obj 260 227 st-phaser;
#X obj 230 65 perk-clap;
#X obj 281 461 dac~;
#X obj 439 40 bng 15 250 50 0 empty empty empty 17 7 0 10 -262144 -1
-1;
#X obj 19 11 r sFirefox;
#X obj 40 35 bng 15 250 50 0 empty empty empty 17 7 0 10 -262144 -1
-1;
#X obj 227 40 bng 15 250 50 0 empty empty empty 17 7 0 10 -262144 -1
-1;
#X obj 225 10 r sGedit;
#X obj 451 8 r sTerminal;
#X obj 452 230 st-flanger;
#X obj 19 62 perk-snare;
#X obj 504 33 perk-hihat;
#X obj 582 380 st-vibrato;
#X obj 666 231 st-pitchshifter;
#X obj -6 264 mimosa-sampler;
#X msg 1 228 0;
#X obj 123 294 mimosa-sampler;
#X msg 135 232 0;
#X obj 175 241 random 10;
#X obj 779 12 r sGimp;
#X obj 779 44 bng 15 250 50 0 empty empty empty 17 7 0 10 -262144 -1
-1;
#X obj 730 81 perk-bassdrum;
#X connect 0 0 3 0;
#X connect 0 0 3 1;
#X connect 1 0 10 0;
#X connect 2 0 1 0;
#X connect 4 0 12 0;
#X connect 5 0 6 0;
#X connect 6 0 11 0;
#X connect 6 0 16 0;
#X connect 7 0 2 0;
#X connect 7 0 18 0;
#X connect 7 0 19 0;
#X connect 8 0 7 0;
#X connect 9 0 4 0;
#X connect 10 0 13 0;
#X connect 10 0 14 0;
#X connect 11 0 1 0;
#X connect 12 0 1 0;
#X connect 13 0 0 0;
#X connect 14 0 13 0;
#X connect 15 0 3 0;
#X connect 15 0 3 1;
#X connect 16 0 15 0;
#X connect 17 0 3 0;
#X connect 17 0 3 1;
#X connect 19 0 17 0;
#X connect 20 0 21 0;
#X connect 21 0 22 0;
#X connect 22 0 1 0;
#X restore -96 -55 pd samples;
#X text -149 164 EMOTIONAL KERNEL PANIC;
#X text -95 -111 CONTROLES;
#X msg 216 39 \; pd dsp 1;
#X msg 308 39 \; pd dsp 0;
#X text 237 72 ON;
#X text 325 72 OFF;
#X text -150 175 Mapeamento do Kernel Linux Processamento de Samples
e Imagens;
#X text -150 204 RICARDO BRAZILEIRO - rbrazileiro at gmail dot com
;
#X text 22 -175 EMOTIONAL KERNEL PANIC;
