#N canvas 119 76 560 430 10;
#X declare -lib iem_tab;
#X declare -lib tof;
#X declare -lib iem_tab;
#X declare -lib tof;
#X declare -lib mrpeach/routeOSC;
#X declare -lib mrpeach/udpreceive;
#X declare -lib mrpeach/unpackOSC;
#X declare -lib mrpeach/routeOSC;
#X declare -lib mrpeach/udpreceive;
#X declare -lib mrpeach/unpackOSC;
#N canvas 2 16 818 467 mapsound 0;
#X obj 47 69 r mapProcessos;
#X floatatom 47 98 5 0 0 0 - - -;
#X obj 38 182 bng 15 250 50 0 empty empty empty 17 7 0 10 -262144 -1
-1;
#X obj 78 184 bng 15 250 50 0 empty empty empty 17 7 0 10 -262144 -1
-1;
#X obj 119 186 bng 15 250 50 0 empty empty empty 17 7 0 10 -262144
-1 -1;
#X text 16 201 FIREFOX;
#X text 67 204 GEDIT;
#X text 106 13 MAPA SONORO DO KERNEL;
#X text 58 35 PROCESSOS;
#X floatatom 542 111 5 0 0 0 - - -;
#X floatatom 503 279 5 0 0 0 - - -;
#X floatatom 442 108 5 0 0 0 - - -;
#X text 421 37 CPU;
#X floatatom 542 111 5 0 0 0 - - -;
#X floatatom 329 107 5 0 0 0 - - -;
#X floatatom 442 108 5 0 0 0 - - -;
#X obj 329 71 r cpuFirefox;
#X floatatom 331 289 5 0 0 0 - - -;
#X obj 326 249 r memFirefox;
#X floatatom 422 290 5 0 0 0 - - -;
#X obj 416 248 r memGedit;
#X text 417 224 MEMÓRIA;
#X obj 19 238 s sFirefox;
#X obj 90 239 s sGedit;
#X obj 148 239 s sTerminal;
#X obj 296 146 autoscale 0.2 0.9;
#X floatatom 303 172 5 0 0 0 - - -;
#X obj 414 148 autoscale 0.2 0.9;
#X floatatom 418 177 5 0 0 0 - - -;
#X obj 297 203 s synthFirefox;
#X obj 414 202 s synthGedit;
#X obj 536 147 autoscale 0.2 0.9;
#X floatatom 537 173 5 0 0 0 - - -;
#X obj 534 202 s synthXorg;
#X obj 439 69 r cpuGedit;
#X obj 540 71 r cpuXorg;
#X obj 502 250 r memXorg;
#X obj 521 369 s delayXorg;
#X obj 523 305 autoscale 0.2 0.9;
#X floatatom 524 333 5 0 0 0 - - -;
#X obj 43 142 select 1 2 3 4;
#X obj 167 186 bng 15 250 50 0 empty empty empty 17 7 0 10 -262144
-1 -1;
#X text 161 204 JACKD;
#X text 113 204 TERMINAL;
#X obj 228 239 s sGimp;
#X floatatom 643 279 5 0 0 0 - - -;
#X obj 663 305 autoscale 0.2 0.9;
#X floatatom 664 333 5 0 0 0 - - -;
#X obj 642 250 r memGimp;
#X obj 661 369 s delayGimp;
#X connect 0 0 1 0;
#X connect 1 0 40 0;
#X connect 2 0 22 0;
#X connect 3 0 23 0;
#X connect 4 0 24 0;
#X connect 9 0 31 0;
#X connect 10 0 38 0;
#X connect 11 0 27 0;
#X connect 14 0 25 0;
#X connect 16 0 14 0;
#X connect 18 0 17 0;
#X connect 20 0 19 0;
#X connect 25 0 26 0;
#X connect 26 0 29 0;
#X connect 27 0 28 0;
#X connect 28 0 30 0;
#X connect 31 0 32 0;
#X connect 32 0 33 0;
#X connect 34 0 11 0;
#X connect 35 0 9 0;
#X connect 36 0 10 0;
#X connect 38 0 39 0;
#X connect 39 0 37 0;
#X connect 40 0 2 0;
#X connect 40 1 3 0;
#X connect 40 2 4 0;
#X connect 40 3 41 0;
#X connect 41 0 44 0;
#X connect 45 0 46 0;
#X connect 46 0 47 0;
#X connect 47 0 49 0;
#X connect 48 0 45 0;
#X restore -97 -79 pd mapsound;
#N canvas 25 6 964 476 samples 0;
#X obj 259 367 st-delayfb;
#X obj 260 227 st-phaser;
#X obj 230 65 perk-clap;
#X obj 281 461 dac~;
#X obj 439 40 bng 15 250 50 0 empty empty empty 17 7 0 10 -262144 -1
-1;
#X obj 19 11 r sFirefox;
#X obj 40 35 bng 15 250 50 0 empty empty empty 17 7 0 10 -262144 -1
-1;
#X obj 227 40 bng 15 250 50 0 empty empty empty 17 7 0 10 -262144 -1
-1;
#X obj 225 10 r sGedit;
#X obj 451 8 r sTerminal;
#X obj 452 230 st-flanger;
#X obj 19 62 perk-snare;
#X obj 504 33 perk-hihat;
#X obj 582 380 st-vibrato;
#X obj 666 231 st-pitchshifter;
#X obj -6 264 mimosa-sampler;
#X msg 1 228 0;
#X obj 123 294 mimosa-sampler;
#X msg 135 232 0;
#X obj 175 241 random 10;
#X obj 779 12 r sGimp;
#X obj 779 44 bng 15 250 50 0 empty empty empty 17 7 0 10 -262144 -1
-1;
#X obj 730 81 perk-bassdrum;
#X connect 0 0 3 0;
#X connect 0 0 3 1;
#X connect 1 0 10 0;
#X connect 2 0 1 0;
#X connect 4 0 12 0;
#X connect 5 0 6 0;
#X connect 6 0 11 0;
#X connect 6 0 16 0;
#X connect 7 0 2 0;
#X connect 7 0 18 0;
#X connect 7 0 19 0;
#X connect 8 0 7 0;
#X connect 9 0 4 0;
#X connect 10 0 13 0;
#X connect 10 0 14 0;
#X connect 11 0 1 0;
#X connect 12 0 1 0;
#X connect 13 0 0 0;
#X connect 14 0 13 0;
#X connect 15 0 3 0;
#X connect 15 0 3 1;
#X connect 16 0 15 0;
#X connect 17 0 3 0;
#X connect 17 0 3 1;
#X connect 19 0 17 0;
#X connect 20 0 21 0;
#X connect 21 0 22 0;
#X connect 22 0 1 0;
#X restore -96 -55 pd samples;
#X text -149 164 EMOTIONAL KERNEL PANIC;
#X text -95 -111 CONTROLES;
#X msg 216 39 \; pd dsp 1;
#X msg 308 39 \; pd dsp 0;
#X text 237 72 ON;
#X text 325 72 OFF;
#X text -150 175 Mapeamento do Kernel Linux Processamento de Samples
e Imagens;
#X text -150 204 RICARDO BRAZILEIRO - rbrazileiro at gmail dot com
;
#X text 22 -175 EMOTIONAL KERNEL PANIC;
#N canvas 5 30 585 368 emotional 0;
#X obj 67 319 gemhead;
#X obj 155 395 pix_image;
#X msg 37 274 open azulclaro.tif;
#X obj 739 650 gemwin;
#X msg 693 537 create \, 1;
#X msg 691 564 destroy;
#X obj 571 392 pix_image;
#X obj 119 719 pix_texture;
#X obj 551 316 gemhead;
#X obj 219 621 pix_composite;
#X obj 268 393 pix_image;
#X obj 220 314 gemhead;
#X msg 218 277 open vermelho.tif;
#X obj 338 562 pix_composite;
#X obj 686 391 pix_image;
#X obj 681 322 gemhead;
#X msg 391 279 open verde.tif;
#X obj 426 392 pix_image;
#X obj 392 315 gemhead;
#X obj 468 505 pix_composite;
#X obj 600 449 pix_composite;
#X msg 541 281 open roxo.tif;
#X msg 693 287 open preto.tif;
#X msg 789 528 fullscreen 1;
#X obj 157 538 rotate 0 1 0 0;
#X msg 240 251 open tudopreto.tif;
#X msg 405 253 open tudopreto.tif;
#X msg 569 257 open tudopreto.tif;
#X msg 708 254 open tudopreto.tif;
#X msg 81 249 open tudopreto.tif;
#X obj 69 32 r onM1;
#X obj 132 32 r offM1;
#X obj 205 35 r onM2;
#X obj 280 21 r offM2;
#X obj 487 33 r onM3;
#X obj 548 33 r offM3;
#X obj 132 61 bng 15 250 50 0 empty empty empty 17 7 0 10 -262144 -1
-1;
#X obj 69 61 bng 15 250 50 0 empty empty empty 17 7 0 10 -262144 -1
-1;
#X obj 487 61 bng 15 250 50 0 empty empty empty 17 7 0 10 -262144 -1
-1;
#X obj 548 61 bng 15 250 50 0 empty empty empty 17 7 0 10 -262144 -1
-1;
#X obj 205 64 bng 15 250 50 0 empty empty empty 17 7 0 10 -262144 -1
-1;
#X obj 279 50 bng 15 250 50 0 empty empty empty 17 7 0 10 -262144 -1
-1;
#X floatatom 51 584 5 0 64 1 segments - -;
#X floatatom 72 556 5 0 0 1 sourceAngle - -;
#X obj 104 670 pix_kaleidoscope;
#X obj 4 539 r cpu1;
#X obj 16 496 r cpu3;
#X obj 34 455 r cpu2;
#X floatatom 86 493 5 0 0 0 - - -;
#X obj 804 44 loadbang;
#X obj 825 109 delay 1000;
#N canvas 10 24 778 542 receive_osc_2 0;
#X obj 177 82 import mrpeach/routeOSC;
#X obj 178 37 import mrpeach/udpreceive;
#X text 183 -1 receiving osc messages;
#X obj 177 60 import mrpeach/unpackOSC;
#X obj 165 195 unpackOSC;
#X obj 165 163 udpreceive 9002;
#X obj 21 242 routeOSC /on1;
#X obj 113 240 routeOSC /off1;
#X obj 219 242 routeOSC /on2;
#X obj 305 248 routeOSC /off2;
#X obj 375 265 routeOSC /on3;
#X obj 465 254 routeOSC /off3;
#X obj 18 321 s onM1;
#X obj 118 321 s offM1;
#X obj 218 321 s onM2;
#X obj 308 321 s offM2;
#X obj 373 315 s onM3;
#X obj 511 330 s offM3;
#X obj 45 283 bng 15 250 50 0 empty empty empty 17 7 0 10 -262144 -1
-1;
#X obj 137 292 bng 15 250 50 0 empty empty empty 17 7 0 10 -262144
-1 -1;
#X obj 234 290 bng 15 250 50 0 empty empty empty 17 7 0 10 -262144
-1 -1;
#X obj 313 291 bng 15 250 50 0 empty empty empty 17 7 0 10 -262144
-1 -1;
#X obj 382 290 bng 15 250 50 0 empty empty empty 17 7 0 10 -262144
-1 -1;
#X obj 491 298 bng 15 250 50 0 empty empty empty 17 7 0 10 -262144
-1 -1;
#X text 270 383 comment;
#X floatatom 70 478 5 0 0 0 - - -;
#X floatatom 193 481 5 0 0 0 - - -;
#X floatatom 338 482 5 0 0 0 - - -;
#X obj 70 430 routeOSC /cpu1;
#X obj 189 429 routeOSC /cpu2;
#X obj 318 410 routeOSC /cpu3;
#X obj 179 527 s cpu2;
#X obj 66 528 s cpu1;
#X obj 318 531 s cpu3;
#X obj 453 177 bng 15 250 50 0 empty empty empty 17 7 0 10 -262144
-1 -1;
#X obj 559 177 bng 15 250 50 0 empty empty empty 17 7 0 10 -262144
-1 -1;
#X obj 412 91 bng 15 250 50 0 empty empty empty 17 7 0 10 -262144 -1
-1;
#X obj 541 86 bng 15 250 50 0 empty empty empty 17 7 0 10 -262144 -1
-1;
#X obj 417 54 routeOSC /on4;
#X obj 464 106 s onM4;
#X obj 570 104 s offM4;
#X obj 539 51 routeOSC /off4;
#X obj 434 135 routeOSC /on5;
#X obj 534 135 routeOSC /off5;
#X obj 537 208 s offM5;
#X obj 438 208 s onM5;
#X floatatom 438 482 5 0 0 0 - - -;
#X floatatom 548 482 5 0 0 0 - - -;
#X obj 418 410 routeOSC /cpu4;
#X obj 418 531 s cpu4;
#X obj 528 531 s cpu5;
#X obj 528 410 routeOSC /cpu5;
#X connect 4 0 6 0;
#X connect 4 0 7 0;
#X connect 4 0 8 0;
#X connect 4 0 9 0;
#X connect 4 0 10 0;
#X connect 4 0 11 0;
#X connect 4 0 28 0;
#X connect 4 0 29 0;
#X connect 4 0 30 0;
#X connect 4 0 38 0;
#X connect 4 0 41 0;
#X connect 4 0 42 0;
#X connect 4 0 43 0;
#X connect 4 0 48 0;
#X connect 4 0 51 0;
#X connect 5 0 4 0;
#X connect 6 0 18 0;
#X connect 7 0 19 0;
#X connect 8 0 20 0;
#X connect 9 0 21 0;
#X connect 10 0 22 0;
#X connect 11 0 23 0;
#X connect 18 0 12 0;
#X connect 19 0 13 0;
#X connect 20 0 14 0;
#X connect 21 0 15 0;
#X connect 22 0 16 0;
#X connect 23 0 17 0;
#X connect 25 0 32 0;
#X connect 26 0 31 0;
#X connect 27 0 33 0;
#X connect 28 0 25 0;
#X connect 29 0 26 0;
#X connect 30 0 27 0;
#X connect 34 0 45 0;
#X connect 35 0 44 0;
#X connect 36 0 39 0;
#X connect 37 0 40 0;
#X connect 38 0 36 0;
#X connect 41 0 37 0;
#X connect 42 0 34 0;
#X connect 43 0 35 0;
#X connect 46 0 49 0;
#X connect 47 0 50 0;
#X connect 48 0 46 0;
#X connect 51 0 47 0;
#X restore 723 696 pd receive_osc_2;
#X msg 28 633 repeat 0;
#X msg 804 585 dimen 1280 800;
#X msg 615 580 border \$1;
#X obj 614 562 tgl 15 1 empty empty empty 0 -6 0 10 -262144 -1 -1 1
1;
#X msg 527 623 offset 800 0;
#X msg 841 615 dimen 800 600;
#X obj 522 564 tgl 15 1 empty empty empty 0 -6 0 10 -262144 -1 -1 0
1;
#X msg 523 582 lighting \$1;
#X obj 645 487 loadbang;
#X obj 205 35 r onM2;
#X obj 279 21 r offM2;
#X obj 205 64 bng 15 250 50 0 empty empty empty 17 7 0 10 -262144 -1
-1;
#X obj 279 50 bng 15 250 50 0 empty empty empty 17 7 0 10 -262144 -1
-1;
#X obj 348 52 bng 15 250 50 0 empty empty empty 17 7 0 10 -262144 -1
-1;
#X obj 424 56 bng 15 250 50 0 empty empty empty 17 7 0 10 -262144 -1
-1;
#X obj 628 42 bng 15 250 50 0 empty empty empty 17 7 0 10 -262144 -1
-1;
#X obj 700 39 bng 15 250 50 0 empty empty empty 17 7 0 10 -262144 -1
-1;
#X obj 348 23 r onM4;
#X obj 424 27 r offM4;
#X obj 628 13 r onM5;
#X obj 704 18 r offM5;
#X obj 295 722 circle;
#X floatatom 414 675 5 0 0 0 - - -;
#X obj 65 426 r cpu4;
#X obj 82 388 r cpu5;
#X floatatom 102 462 5 0 0 0 - - -;
#X floatatom 128 420 5 0 0 0 - - -;
#X obj 162 503 rotate 0 0 1 0;
#X obj 178 464 rotate 0 0 0 1;
#X connect 0 0 1 0;
#X connect 1 0 80 0;
#X connect 2 0 1 0;
#X connect 4 0 3 0;
#X connect 5 0 3 0;
#X connect 6 0 20 0;
#X connect 7 0 73 0;
#X connect 8 0 6 0;
#X connect 9 0 44 0;
#X connect 10 0 13 0;
#X connect 11 0 10 0;
#X connect 12 0 10 0;
#X connect 13 0 9 1;
#X connect 14 0 20 1;
#X connect 15 0 14 0;
#X connect 16 0 17 0;
#X connect 17 0 19 0;
#X connect 18 0 17 0;
#X connect 19 0 13 1;
#X connect 20 0 19 1;
#X connect 21 0 6 0;
#X connect 22 0 14 0;
#X connect 23 0 3 0;
#X connect 24 0 9 0;
#X connect 25 0 10 0;
#X connect 26 0 17 0;
#X connect 27 0 6 0;
#X connect 28 0 14 0;
#X connect 29 0 1 0;
#X connect 30 0 37 0;
#X connect 31 0 36 0;
#X connect 32 0 40 0;
#X connect 33 0 41 0;
#X connect 34 0 38 0;
#X connect 35 0 39 0;
#X connect 36 0 29 0;
#X connect 37 0 2 0;
#X connect 38 0 21 0;
#X connect 39 0 27 0;
#X connect 40 0 12 0;
#X connect 41 0 25 0;
#X connect 42 0 44 1;
#X connect 43 0 44 2;
#X connect 44 0 7 0;
#X connect 45 0 42 0;
#X connect 46 0 43 0;
#X connect 47 0 48 0;
#X connect 48 0 24 1;
#X connect 49 0 2 0;
#X connect 49 0 12 0;
#X connect 49 0 16 0;
#X connect 49 0 21 0;
#X connect 49 0 22 0;
#X connect 49 0 50 0;
#X connect 50 0 29 0;
#X connect 50 0 12 0;
#X connect 50 0 26 0;
#X connect 50 0 27 0;
#X connect 50 0 28 0;
#X connect 52 0 7 0;
#X connect 53 0 3 0;
#X connect 54 0 3 0;
#X connect 55 0 54 0;
#X connect 56 0 3 0;
#X connect 57 0 3 0;
#X connect 58 0 59 0;
#X connect 59 0 3 0;
#X connect 60 0 57 0;
#X connect 60 0 56 0;
#X connect 60 0 54 0;
#X connect 61 0 63 0;
#X connect 62 0 64 0;
#X connect 65 0 16 0;
#X connect 66 0 26 0;
#X connect 67 0 22 0;
#X connect 68 0 28 0;
#X connect 69 0 65 0;
#X connect 70 0 66 0;
#X connect 71 0 67 0;
#X connect 72 0 68 0;
#X connect 74 0 73 1;
#X connect 75 0 77 0;
#X connect 76 0 78 0;
#X connect 77 0 79 1;
#X connect 78 0 80 1;
#X connect 79 0 24 0;
#X connect 80 0 79 0;
#X restore -98 -25 pd emotional;
#N canvas 5 30 714 481 recebe_dados 0;
#X obj 177 82 import mrpeach/routeOSC;
#X obj 178 37 import mrpeach/udpreceive;
#X text 183 -1 receiving osc messages;
#X obj 177 60 import mrpeach/unpackOSC;
#X obj 165 195 unpackOSC;
#X obj 165 163 udpreceive 9002;
#X obj 21 242 routeOSC /on1;
#X obj 113 240 routeOSC /off1;
#X obj 219 242 routeOSC /on2;
#X obj 305 248 routeOSC /off2;
#X obj 375 265 routeOSC /on3;
#X obj 465 254 routeOSC /off3;
#X obj 18 321 s onM1;
#X obj 118 321 s offM1;
#X obj 218 321 s onM2;
#X obj 308 321 s offM2;
#X obj 373 315 s onM3;
#X obj 511 330 s offM3;
#X obj 45 283 bng 15 250 50 0 empty empty empty 17 7 0 10 -262144 -1
-1;
#X obj 137 292 bng 15 250 50 0 empty empty empty 17 7 0 10 -262144
-1 -1;
#X obj 234 290 bng 15 250 50 0 empty empty empty 17 7 0 10 -262144
-1 -1;
#X obj 313 291 bng 15 250 50 0 empty empty empty 17 7 0 10 -262144
-1 -1;
#X obj 382 290 bng 15 250 50 0 empty empty empty 17 7 0 10 -262144
-1 -1;
#X obj 491 298 bng 15 250 50 0 empty empty empty 17 7 0 10 -262144
-1 -1;
#X text 270 383 comment;
#X floatatom 70 478 5 0 0 0 - - -;
#X floatatom 193 481 5 0 0 0 - - -;
#X floatatom 338 482 5 0 0 0 - - -;
#X obj 70 430 routeOSC /cpu1;
#X obj 189 429 routeOSC /cpu2;
#X obj 318 410 routeOSC /cpu3;
#X obj 179 527 s cpu2;
#X obj 66 528 s cpu1;
#X obj 318 531 s cpu3;
#X obj 453 177 bng 15 250 50 0 empty empty empty 17 7 0 10 -262144
-1 -1;
#X obj 559 177 bng 15 250 50 0 empty empty empty 17 7 0 10 -262144
-1 -1;
#X obj 412 91 bng 15 250 50 0 empty empty empty 17 7 0 10 -262144 -1
-1;
#X obj 541 86 bng 15 250 50 0 empty empty empty 17 7 0 10 -262144 -1
-1;
#X obj 417 54 routeOSC /on4;
#X obj 464 106 s onM4;
#X obj 570 104 s offM4;
#X obj 539 51 routeOSC /off4;
#X obj 434 135 routeOSC /on5;
#X obj 534 135 routeOSC /off5;
#X obj 537 208 s offM5;
#X obj 438 208 s onM5;
#X floatatom 438 482 5 0 0 0 - - -;
#X floatatom 548 482 5 0 0 0 - - -;
#X obj 418 410 routeOSC /cpu4;
#X obj 418 531 s cpu4;
#X obj 528 531 s cpu5;
#X obj 528 410 routeOSC /cpu5;
#X connect 4 0 6 0;
#X connect 4 0 7 0;
#X connect 4 0 8 0;
#X connect 4 0 9 0;
#X connect 4 0 10 0;
#X connect 4 0 11 0;
#X connect 4 0 28 0;
#X connect 4 0 29 0;
#X connect 4 0 30 0;
#X connect 4 0 38 0;
#X connect 4 0 41 0;
#X connect 4 0 42 0;
#X connect 4 0 43 0;
#X connect 4 0 48 0;
#X connect 4 0 51 0;
#X connect 5 0 4 0;
#X connect 6 0 18 0;
#X connect 7 0 19 0;
#X connect 8 0 20 0;
#X connect 9 0 21 0;
#X connect 10 0 22 0;
#X connect 11 0 23 0;
#X connect 18 0 12 0;
#X connect 19 0 13 0;
#X connect 20 0 14 0;
#X connect 21 0 15 0;
#X connect 22 0 16 0;
#X connect 23 0 17 0;
#X connect 25 0 32 0;
#X connect 26 0 31 0;
#X connect 27 0 33 0;
#X connect 28 0 25 0;
#X connect 29 0 26 0;
#X connect 30 0 27 0;
#X connect 34 0 45 0;
#X connect 35 0 44 0;
#X connect 36 0 39 0;
#X connect 37 0 40 0;
#X connect 38 0 36 0;
#X connect 41 0 37 0;
#X connect 42 0 34 0;
#X connect 43 0 35 0;
#X connect 46 0 49 0;
#X connect 47 0 50 0;
#X connect 48 0 46 0;
#X connect 51 0 47 0;
#X restore -98 2 pd recebe_dados;
