#N canvas 110 101 560 430 10;
#X declare -lib iem_tab;
#X declare -lib tof;
#X declare -lib iem_tab;
#X declare -lib tof;
#X declare -lib mrpeach/routeOSC;
#X declare -lib mrpeach/udpreceive;
#X declare -lib mrpeach/unpackOSC;
#X declare -lib mrpeach/routeOSC;
#X declare -lib mrpeach/udpreceive;
#X declare -lib mrpeach/unpackOSC;
#N canvas 354 116 344 390 mapsound 0;
#X obj 47 69 r mapProcessos;
#X floatatom 47 98 5 0 0 0 - - -;
#X obj 38 182 bng 15 250 50 0 empty empty empty 17 7 0 10 -262144 -1
-1;
#X obj 78 184 bng 15 250 50 0 empty empty empty 17 7 0 10 -262144 -1
-1;
#X obj 119 186 bng 15 250 50 0 empty empty empty 17 7 0 10 -262144
-1 -1;
#X text 36 204 FIREFOX;
#X text 87 204 GEDIT;
#X text 106 13 MAPA SONORO DO KERNEL;
#X text 58 35 PROCESSOS;
#X obj 19 238 s sFirefox;
#X obj 90 239 s sGedit;
#X obj 148 239 s sTerminal;
#X obj 43 142 select 1 2 3 4;
#X obj 167 186 bng 15 250 50 0 empty empty empty 17 7 0 10 -262144
-1 -1;
#X text 133 204 TERMINAL;
#X obj 228 239 s sGimp;
#X text 191 204 GIMP;
#X connect 0 0 1 0;
#X connect 1 0 12 0;
#X connect 2 0 9 0;
#X connect 3 0 10 0;
#X connect 4 0 11 0;
#X connect 12 0 2 0;
#X connect 12 1 3 0;
#X connect 12 2 4 0;
#X connect 12 3 13 0;
#X connect 13 0 15 0;
#X restore 283 -79 pd mapsound;
#N canvas 5 48 964 476 samples 0;
#X obj 259 367 st-delayfb;
#X obj 260 227 st-phaser;
#X obj 230 65 perk-clap;
#X obj 281 461 dac~;
#X obj 439 40 bng 15 250 50 0 empty empty empty 17 7 0 10 -262144 -1
-1;
#X obj 19 11 r sFirefox;
#X obj 40 35 bng 15 250 50 0 empty empty empty 17 7 0 10 -262144 -1
-1;
#X obj 227 40 bng 15 250 50 0 empty empty empty 17 7 0 10 -262144 -1
-1;
#X obj 225 10 r sGedit;
#X obj 451 8 r sTerminal;
#X obj 452 230 st-flanger;
#X obj 19 62 perk-snare;
#X obj 504 33 perk-hihat;
#X obj 582 380 st-vibrato;
#X obj 666 231 st-pitchshifter;
#X obj -6 264 mimosa-sampler;
#X msg 1 228 0;
#X obj 123 294 mimosa-sampler;
#X msg 135 232 0;
#X obj 175 241 random 10;
#X obj 779 12 r sGimp;
#X obj 779 44 bng 15 250 50 0 empty empty empty 17 7 0 10 -262144 -1
-1;
#X obj 730 81 perk-bassdrum;
#X obj 848 15 r Find;
#X obj 850 43 bng 15 250 50 0 empty empty empty 17 7 0 10 -262144 -1
-1;
#X connect 0 0 3 0;
#X connect 0 0 3 1;
#X connect 1 0 10 0;
#X connect 2 0 1 0;
#X connect 4 0 12 0;
#X connect 5 0 6 0;
#X connect 6 0 11 0;
#X connect 6 0 16 0;
#X connect 7 0 2 0;
#X connect 7 0 18 0;
#X connect 7 0 19 0;
#X connect 8 0 7 0;
#X connect 9 0 4 0;
#X connect 10 0 13 0;
#X connect 10 0 14 0;
#X connect 11 0 1 0;
#X connect 12 0 1 0;
#X connect 13 0 0 0;
#X connect 14 0 13 0;
#X connect 15 0 3 0;
#X connect 15 0 3 1;
#X connect 16 0 15 0;
#X connect 17 0 3 0;
#X connect 17 0 3 1;
#X connect 19 0 17 0;
#X connect 20 0 21 0;
#X connect 21 0 22 0;
#X connect 22 0 1 0;
#X connect 23 0 24 0;
#X connect 24 0 22 0;
#X restore 283 -55 pd samples;
#X text -149 164 EMOTIONAL KERNEL PANIC;
#X text 285 -111 CONTROLES;
#X msg 228 92 \; pd dsp 1;
#X msg 320 92 \; pd dsp 0;
#X text 249 125 ON;
#X text 337 125 OFF;
#X text -150 175 Mapeamento do Kernel Linux Processamento de Samples
e Imagens;
#X text -150 204 RICARDO BRAZILEIRO - rbrazileiro at gmail dot com
;
#X text 22 -175 EMOTIONAL KERNEL PANIC;
#N canvas 1 24 778 521 emotional 1;
#X obj 1249 831 gemwin;
#X msg 1166 718 create \, 1;
#X msg 1235 718 destroy;
#X msg 1299 709 fullscreen 1;
#N canvas 10 30 778 542 receive_osc_2 0;
#X obj 177 82 import mrpeach/routeOSC;
#X obj 178 37 import mrpeach/udpreceive;
#X text 183 -1 receiving osc messages;
#X obj 177 60 import mrpeach/unpackOSC;
#X obj 165 195 unpackOSC;
#X obj 165 163 udpreceive 9002;
#X obj 21 242 routeOSC /on1;
#X obj 113 240 routeOSC /off1;
#X obj 219 242 routeOSC /on2;
#X obj 305 248 routeOSC /off2;
#X obj 375 265 routeOSC /on3;
#X obj 465 254 routeOSC /off3;
#X obj 18 321 s onM1;
#X obj 118 321 s offM1;
#X obj 218 321 s onM2;
#X obj 308 321 s offM2;
#X obj 373 315 s onM3;
#X obj 511 330 s offM3;
#X obj 45 283 bng 15 250 50 0 empty empty empty 17 7 0 10 -262144 -1
-1;
#X obj 137 292 bng 15 250 50 0 empty empty empty 17 7 0 10 -262144
-1 -1;
#X obj 234 290 bng 15 250 50 0 empty empty empty 17 7 0 10 -262144
-1 -1;
#X obj 313 291 bng 15 250 50 0 empty empty empty 17 7 0 10 -262144
-1 -1;
#X obj 382 290 bng 15 250 50 0 empty empty empty 17 7 0 10 -262144
-1 -1;
#X obj 491 298 bng 15 250 50 0 empty empty empty 17 7 0 10 -262144
-1 -1;
#X text 270 383 comment;
#X floatatom 70 478 5 0 0 0 - - -;
#X floatatom 193 481 5 0 0 0 - - -;
#X floatatom 338 482 5 0 0 0 - - -;
#X obj 70 430 routeOSC /cpu1;
#X obj 189 429 routeOSC /cpu2;
#X obj 318 410 routeOSC /cpu3;
#X obj 179 527 s cpu2;
#X obj 66 528 s cpu1;
#X obj 318 531 s cpu3;
#X obj 453 177 bng 15 250 50 0 empty empty empty 17 7 0 10 -262144
-1 -1;
#X obj 559 177 bng 15 250 50 0 empty empty empty 17 7 0 10 -262144
-1 -1;
#X obj 412 91 bng 15 250 50 0 empty empty empty 17 7 0 10 -262144 -1
-1;
#X obj 541 86 bng 15 250 50 0 empty empty empty 17 7 0 10 -262144 -1
-1;
#X obj 417 54 routeOSC /on4;
#X obj 464 106 s onM4;
#X obj 570 104 s offM4;
#X obj 539 51 routeOSC /off4;
#X obj 434 135 routeOSC /on5;
#X obj 534 135 routeOSC /off5;
#X obj 537 208 s offM5;
#X obj 438 208 s onM5;
#X floatatom 438 482 5 0 0 0 - - -;
#X floatatom 548 482 5 0 0 0 - - -;
#X obj 418 410 routeOSC /cpu4;
#X obj 418 531 s cpu4;
#X obj 528 531 s cpu5;
#X obj 528 410 routeOSC /cpu5;
#X connect 4 0 6 0;
#X connect 4 0 7 0;
#X connect 4 0 8 0;
#X connect 4 0 9 0;
#X connect 4 0 10 0;
#X connect 4 0 11 0;
#X connect 4 0 28 0;
#X connect 4 0 29 0;
#X connect 4 0 30 0;
#X connect 4 0 38 0;
#X connect 4 0 41 0;
#X connect 4 0 42 0;
#X connect 4 0 43 0;
#X connect 4 0 48 0;
#X connect 4 0 51 0;
#X connect 5 0 4 0;
#X connect 6 0 18 0;
#X connect 7 0 19 0;
#X connect 8 0 20 0;
#X connect 9 0 21 0;
#X connect 10 0 22 0;
#X connect 11 0 23 0;
#X connect 18 0 12 0;
#X connect 19 0 13 0;
#X connect 20 0 14 0;
#X connect 21 0 15 0;
#X connect 22 0 16 0;
#X connect 23 0 17 0;
#X connect 25 0 32 0;
#X connect 26 0 31 0;
#X connect 27 0 33 0;
#X connect 28 0 25 0;
#X connect 29 0 26 0;
#X connect 30 0 27 0;
#X connect 34 0 45 0;
#X connect 35 0 44 0;
#X connect 36 0 39 0;
#X connect 37 0 40 0;
#X connect 38 0 36 0;
#X connect 41 0 37 0;
#X connect 42 0 34 0;
#X connect 43 0 35 0;
#X connect 46 0 49 0;
#X connect 47 0 50 0;
#X connect 48 0 46 0;
#X connect 51 0 47 0;
#X restore 1233 877 pd receive_osc_2;
#X msg 1314 766 dimen 1280 800;
#X msg 1125 761 border \$1;
#X obj 1124 743 tgl 15 1 empty empty empty 0 -6 0 10 -262144 -1 -1
1 1;
#X msg 1037 804 offset 800 0;
#X msg 1351 796 dimen 800 600;
#X obj 1034 735 tgl 15 1 empty empty empty 0 -6 0 10 -262144 -1 -1
1 1;
#X msg 1033 763 lighting \$1;
#X obj 1133 640 bng 15 250 50 0 empty empty empty 17 7 0 10 -262144
-1 -1;
#X obj 1181 650 delay 2000;
#X obj 1203 678 bng 15 250 50 0 empty empty empty 17 7 0 10 -262144
-1 -1;
#X obj 1290 665 bng 15 250 50 0 empty empty empty 17 7 0 10 -262144
-1 -1;
#X obj 1106 607 inlet;
#X obj 1324 618 inlet;
#X obj 1240 576 s start;
#X obj 290 310 gemhead;
#X obj 155 395 pix_image;
#X msg 37 274 open azulclaro.tif;
#X obj 571 392 pix_image;
#X obj 551 316 gemhead;
#X obj 268 393 pix_image;
#X msg 218 277 open vermelho.tif;
#X obj 686 391 pix_image;
#X obj 681 322 gemhead;
#X msg 391 279 open verde.tif;
#X obj 426 392 pix_image;
#X obj 392 315 gemhead;
#X msg 541 281 open roxo.tif;
#X msg 693 287 open preto.tif;
#X obj 268 611 rotate 0 1 0 0;
#X msg 240 251 open tudopreto.tif;
#X msg 405 253 open tudopreto.tif;
#X msg 569 257 open tudopreto.tif;
#X msg 708 254 open tudopreto.tif;
#X msg 81 249 open tudopreto.tif;
#X obj 69 32 r onM1;
#X obj 132 32 r offM1;
#X obj 205 35 r onM2;
#X obj 281 39 r offM2;
#X obj 487 33 r onM3;
#X obj 548 33 r offM3;
#X obj 132 61 bng 15 250 50 0 empty empty empty 17 7 0 10 -262144 -1
-1;
#X obj 69 61 bng 15 250 50 0 empty empty empty 17 7 0 10 -262144 -1
-1;
#X obj 487 61 bng 15 250 50 0 empty empty empty 17 7 0 10 -262144 -1
-1;
#X obj 548 61 bng 15 250 50 0 empty empty empty 17 7 0 10 -262144 -1
-1;
#X obj 205 64 bng 15 250 50 0 empty empty empty 17 7 0 10 -262144 -1
-1;
#X obj 281 68 bng 15 250 50 0 empty empty empty 17 7 0 10 -262144 -1
-1;
#X floatatom 18 419 5 0 64 1 segments - -;
#X floatatom 67 376 5 0 0 1 sourceAngle - -;
#X obj 151 473 pix_kaleidoscope;
#X obj -18 390 r cpu1;
#X obj 16 349 r cpu3;
#X obj 16 532 r cpu2;
#X floatatom 108 580 5 0 0 0 - - -;
#X obj 825 109 delay 1000;
#X obj 67 319 gemhead;
#X obj 281 533 alpha;
#X obj 273 504 pix_texture;
#X obj 416 500 pix_texture;
#X obj 559 495 pix_texture;
#X obj 680 495 pix_texture;
#X obj 179 506 pix_texture;
#X obj 272 471 pix_kaleidoscope;
#X obj 402 468 pix_kaleidoscope;
#X obj 549 468 pix_kaleidoscope;
#X obj 676 468 pix_kaleidoscope;
#X obj 39 625 r cpu4;
#X obj 42 673 r cpu5;
#X obj 266 648 rotate 0 0 1 0;
#X obj 265 687 rotate 0 0 0 1;
#X floatatom 155 689 5 0 0 0 - - -;
#X floatatom 161 644 5 0 0 0 - - -;
#X floatatom 409 686 5 0 0 0 - - -;
#X obj 299 730 circle;
#X obj 700 45 r start;
#X msg 1017 630 buffer 1;
#X msg 1017 650 buffer 2;
#X msg 1047 595 bang;
#X connect 1 0 0 0;
#X connect 2 0 0 0;
#X connect 3 0 0 0;
#X connect 5 0 0 0;
#X connect 6 0 0 0;
#X connect 7 0 6 0;
#X connect 8 0 0 0;
#X connect 9 0 0 0;
#X connect 10 0 11 0;
#X connect 11 0 0 0;
#X connect 12 0 11 0;
#X connect 12 0 8 0;
#X connect 12 0 6 0;
#X connect 12 0 9 0;
#X connect 12 0 13 0;
#X connect 12 0 18 0;
#X connect 13 0 14 0;
#X connect 14 0 1 0;
#X connect 15 0 2 0;
#X connect 16 0 12 0;
#X connect 17 0 15 0;
#X connect 19 0 24 0;
#X connect 20 0 53 0;
#X connect 21 0 20 0;
#X connect 22 0 68 0;
#X connect 23 0 22 0;
#X connect 24 0 66 0;
#X connect 25 0 24 0;
#X connect 26 0 69 0;
#X connect 27 0 26 0;
#X connect 28 0 29 0;
#X connect 29 0 67 0;
#X connect 30 0 29 0;
#X connect 31 0 22 0;
#X connect 32 0 26 0;
#X connect 33 0 72 0;
#X connect 34 0 24 0;
#X connect 35 0 29 0;
#X connect 36 0 22 0;
#X connect 37 0 26 0;
#X connect 38 0 20 0;
#X connect 39 0 46 0;
#X connect 40 0 45 0;
#X connect 41 0 49 0;
#X connect 42 0 50 0;
#X connect 43 0 47 0;
#X connect 44 0 48 0;
#X connect 45 0 38 0;
#X connect 46 0 21 0;
#X connect 47 0 31 0;
#X connect 48 0 36 0;
#X connect 49 0 25 0;
#X connect 50 0 34 0;
#X connect 51 0 53 1;
#X connect 51 0 66 1;
#X connect 51 0 67 1;
#X connect 51 0 68 1;
#X connect 51 0 69 1;
#X connect 52 0 53 2;
#X connect 52 0 66 2;
#X connect 52 0 67 2;
#X connect 52 0 68 2;
#X connect 52 0 69 2;
#X connect 53 0 65 0;
#X connect 54 0 51 0;
#X connect 55 0 52 0;
#X connect 56 0 57 0;
#X connect 57 0 33 1;
#X connect 58 0 38 0;
#X connect 58 0 25 0;
#X connect 58 0 35 0;
#X connect 58 0 36 0;
#X connect 58 0 37 0;
#X connect 59 0 20 0;
#X connect 60 0 33 0;
#X connect 61 0 60 0;
#X connect 62 0 60 0;
#X connect 63 0 60 0;
#X connect 64 0 60 0;
#X connect 65 0 60 0;
#X connect 66 0 61 0;
#X connect 67 0 62 0;
#X connect 68 0 63 0;
#X connect 69 0 64 0;
#X connect 70 0 75 0;
#X connect 71 0 74 0;
#X connect 72 0 73 0;
#X connect 73 0 77 0;
#X connect 74 0 73 1;
#X connect 75 0 72 1;
#X connect 76 0 77 1;
#X connect 78 0 21 0;
#X connect 78 0 25 0;
#X connect 78 0 28 0;
#X connect 78 0 31 0;
#X connect 78 0 32 0;
#X connect 78 0 58 0;
#X connect 79 0 0 0;
#X connect 80 0 0 0;
#X connect 81 0 0 0;
#X restore -60 2 pd emotional;
#N canvas 35 123 613 439 recebe_dados 0;
#X obj 50 327 import mrpeach/routeOSC;
#X obj 51 282 import mrpeach/udpreceive;
#X obj 50 305 import mrpeach/unpackOSC;
#X obj 171 106 unpackOSC;
#X obj 171 74 udpreceive 9002;
#N canvas 37 110 737 364 rSamples 0;
#X obj 288 6 r rSamples;
#X obj 40 87 routeOSC /sFirefox;
#X obj 40 155 s sFirefox;
#X obj 170 87 routeOSC /sGedit;
#X obj 300 87 routeOSC /sTerminal;
#X obj 430 87 routeOSC /sGimp;
#X obj 560 87 routeOSC /synthFirefox;
#X obj 170 154 s sGedit;
#X obj 300 155 s sTerminal;
#X obj 430 155 s sGimp;
#X obj 560 155 s synthFirefox;
#X obj 40 207 routeOSC /synthGedit;
#X obj 40 275 s synthGedit;
#X obj 170 207 routeOSC /synthXorg;
#X obj 170 275 s synthXorg;
#X obj 300 207 routeOSC /delayXorg;
#X obj 300 275 s delayXorg;
#X obj 430 207 routeOSC /delayGimp;
#X obj 430 275 s delayGimp;
#X obj 559 207 routeOSC /synthHald;
#X obj 40 317 routeOSC /synthFind;
#X obj 560 275 s synthHald;
#X obj 40 385 s synthFind;
#X floatatom 558 122 5 0 0 0 - - -;
#X floatatom 40 242 5 0 0 0 - - -;
#X floatatom 170 242 5 0 0 0 - - -;
#X floatatom 300 246 5 0 0 0 - - -;
#X floatatom 430 243 5 0 0 0 - - -;
#X floatatom 559 242 5 0 0 0 - - -;
#X floatatom 40 352 5 0 0 0 - - -;
#X obj 40 117 bng 15 250 50 0 empty empty empty 17 7 0 10 -262144 -1
-1;
#X obj 169 120 bng 15 250 50 0 empty empty empty 17 7 0 10 -262144
-1 -1;
#X obj 299 120 bng 15 250 50 0 empty empty empty 17 7 0 10 -262144
-1 -1;
#X obj 429 120 bng 15 250 50 0 empty empty empty 17 7 0 10 -262144
-1 -1;
#X obj 164 337 bng 15 250 50 0 empty empty empty 17 7 0 10 -262144
-1 -1;
#X obj 186 351 s Find;
#X floatatom 657 257 5 0 0 0 - - -;
#X obj 606 239 * 2.5;
#X connect 0 0 1 0;
#X connect 0 0 3 0;
#X connect 0 0 4 0;
#X connect 0 0 5 0;
#X connect 0 0 6 0;
#X connect 0 0 11 0;
#X connect 0 0 13 0;
#X connect 0 0 15 0;
#X connect 0 0 17 0;
#X connect 0 0 19 0;
#X connect 0 0 20 0;
#X connect 1 0 30 0;
#X connect 3 0 31 0;
#X connect 4 0 32 0;
#X connect 5 0 33 0;
#X connect 6 0 23 0;
#X connect 11 0 24 0;
#X connect 13 0 25 0;
#X connect 15 0 26 0;
#X connect 17 0 27 0;
#X connect 19 0 28 0;
#X connect 20 0 29 0;
#X connect 23 0 10 0;
#X connect 24 0 12 0;
#X connect 25 0 14 0;
#X connect 26 0 16 0;
#X connect 27 0 18 0;
#X connect 28 0 37 0;
#X connect 29 0 22 0;
#X connect 29 0 34 0;
#X connect 30 0 2 0;
#X connect 31 0 7 0;
#X connect 32 0 8 0;
#X connect 33 0 9 0;
#X connect 34 0 35 0;
#X connect 36 0 21 0;
#X connect 37 0 36 0;
#X restore 407 85 pd rSamples;
#X obj 95 176 s rSamples;
#N canvas 531 414 671 300 rCPU 0;
#X floatatom -447 146 5 0 0 0 - - -;
#X floatatom -328 149 5 0 0 0 - - -;
#X floatatom -219 150 5 0 0 0 - - -;
#X obj -447 98 routeOSC /cpu1;
#X obj -328 97 routeOSC /cpu2;
#X obj -219 98 routeOSC /cpu3;
#X obj -328 184 s cpu2;
#X obj -447 183 s cpu1;
#X obj -219 189 s cpu3;
#X floatatom -119 150 5 0 0 0 - - -;
#X floatatom -9 150 5 0 0 0 - - -;
#X obj -119 98 routeOSC /cpu4;
#X obj -119 189 s cpu4;
#X obj -9 189 s cpu5;
#X obj -9 98 routeOSC /cpu5;
#X obj -213 29 r rCPU;
#X connect 0 0 7 0;
#X connect 1 0 6 0;
#X connect 2 0 8 0;
#X connect 3 0 0 0;
#X connect 4 0 1 0;
#X connect 5 0 2 0;
#X connect 9 0 12 0;
#X connect 10 0 13 0;
#X connect 11 0 9 0;
#X connect 14 0 10 0;
#X connect 15 0 3 0;
#X connect 15 0 4 0;
#X connect 15 0 5 0;
#X connect 15 0 11 0;
#X connect 15 0 14 0;
#X restore 408 108 pd rCPU;
#N canvas 5 154 793 408 rProcessos 0;
#X obj 121 82 routeOSC /on1;
#X obj 113 263 routeOSC /off1;
#X obj 219 82 routeOSC /on2;
#X obj 212 264 routeOSC /off2;
#X obj 324 84 routeOSC /on3;
#X obj 315 266 routeOSC /off3;
#X obj 121 159 s onM1;
#X obj 113 341 s offM1;
#X obj 219 163 s onM2;
#X obj 212 342 s offM2;
#X obj 324 162 s onM3;
#X obj 315 342 s offM3;
#X obj 121 123 bng 15 250 50 0 empty empty empty 17 7 0 10 -262144
-1 -1;
#X obj 113 306 bng 15 250 50 0 empty empty empty 17 7 0 10 -262144
-1 -1;
#X obj 219 130 bng 15 250 50 0 empty empty empty 17 7 0 10 -262144
-1 -1;
#X obj 212 312 bng 15 250 50 0 empty empty empty 17 7 0 10 -262144
-1 -1;
#X obj 324 130 bng 15 250 50 0 empty empty empty 17 7 0 10 -262144
-1 -1;
#X obj 315 310 bng 15 250 50 0 empty empty empty 17 7 0 10 -262144
-1 -1;
#X obj 513 127 bng 15 250 50 0 empty empty empty 17 7 0 10 -262144
-1 -1;
#X obj 523 312 bng 15 250 50 0 empty empty empty 17 7 0 10 -262144
-1 -1;
#X obj 417 129 bng 15 250 50 0 empty empty empty 17 7 0 10 -262144
-1 -1;
#X obj 419 309 bng 15 250 50 0 empty empty empty 17 7 0 10 -262144
-1 -1;
#X obj 417 84 routeOSC /on4;
#X obj 417 163 s onM4;
#X obj 419 343 s offM4;
#X obj 419 268 routeOSC /off4;
#X obj 513 85 routeOSC /on5;
#X obj 523 270 routeOSC /off5;
#X obj 523 343 s offM5;
#X obj 513 164 s onM5;
#X obj 337 14 r rProcessos;
#X connect 0 0 12 0;
#X connect 1 0 13 0;
#X connect 2 0 14 0;
#X connect 3 0 15 0;
#X connect 4 0 16 0;
#X connect 5 0 17 0;
#X connect 12 0 6 0;
#X connect 13 0 7 0;
#X connect 14 0 8 0;
#X connect 15 0 9 0;
#X connect 16 0 10 0;
#X connect 17 0 11 0;
#X connect 18 0 29 0;
#X connect 19 0 28 0;
#X connect 20 0 23 0;
#X connect 21 0 24 0;
#X connect 22 0 20 0;
#X connect 25 0 21 0;
#X connect 26 0 18 0;
#X connect 27 0 19 0;
#X connect 30 0 0 0;
#X connect 30 0 2 0;
#X connect 30 0 4 0;
#X connect 30 0 22 0;
#X connect 30 0 26 0;
#X connect 30 0 1 0;
#X connect 30 0 3 0;
#X connect 30 0 5 0;
#X connect 30 0 25 0;
#X connect 30 0 27 0;
#X restore 408 132 pd rProcessos;
#X obj 171 178 s rProcessos;
#X obj 258 178 s rCPU;
#X text 415 56 CONTROLES;
#X connect 3 0 6 0;
#X connect 3 0 9 0;
#X connect 3 0 10 0;
#X connect 4 0 3 0;
#X restore 282 -31 pd recebe_dados;
#X obj -60 -49 bng 30 250 50 0 empty empty empty 17 7 0 10 -4034 -1
-1;
#X obj 9 -48 bng 30 250 50 0 empty empty empty 17 7 0 10 -258113 -1
-1;
#X text -70 -87 MULTIMIDIA (GEM+SAMPLES);
#X connect 13 0 11 0;
#X connect 14 0 11 1;
