#N canvas 285 123 943 557 10;
#X obj 136 418 pix_kaleidoscope;
#X obj 136 448 pix_texture;
#X obj 162 390 r cpu3;
#X obj 149 361 r cpu1;
#X floatatom 181 481 5 0 0 0 - - -;
#X obj 11 80 gemwin;
#X msg 11 8 create \, 1;
#X msg 32 41 destroy;
#X obj 136 333 rotateXYZ;
#X obj 153 256 r cpu2;
#X obj 170 282 r cpu4;
#X obj 187 307 r cpu5;
#X obj 266 49 gemhead;
#X obj 266 24 tgl 15 0 empty empty empty 17 7 0 10 -262144 -1 -1 1
1;
#X obj 416 79 gemhead;
#X obj 416 54 tgl 15 0 empty empty empty 17 7 0 10 -262144 -1 -1 0
1;
#X obj 136 96 pix_add;
#X obj 136 126 pix_add;
#X obj 794 169 gemhead;
#X obj 794 144 tgl 15 0 empty empty empty 17 7 0 10 -262144 -1 -1 0
1;
#X obj 136 17 gemhead;
#X obj 136 156 pix_add;
#X obj 136 186 pix_add;
#X obj 136 216 pix_add;
#X obj 546 109 gemhead;
#X obj 546 84 tgl 15 0 empty empty empty 17 7 0 10 -262144 -1 -1 0
1;
#X obj 666 139 gemhead;
#X obj 666 114 tgl 15 0 empty empty empty 17 7 0 10 -262144 -1 -1 0
1;
#X obj 136 510 circle 4;
#X obj 266 79 pix_image vermelhoB.tif;
#X obj 416 109 pix_image verdeB.tif;
#X obj 546 139 pix_image roxoB.tif;
#X obj 666 169 pix_image pretoB.tif;
#X obj 794 199 pix_image azulclaroB.tif;
#X obj 136 62 pix_image alphaB.tif;
#X connect 0 0 1 0;
#X connect 1 0 28 0;
#X connect 2 0 0 2;
#X connect 3 0 0 1;
#X connect 4 0 28 1;
#X connect 6 0 5 0;
#X connect 7 0 5 0;
#X connect 8 0 0 0;
#X connect 9 0 8 1;
#X connect 10 0 8 2;
#X connect 11 0 8 3;
#X connect 12 0 29 0;
#X connect 13 0 12 0;
#X connect 14 0 30 0;
#X connect 15 0 14 0;
#X connect 16 0 17 0;
#X connect 17 0 21 0;
#X connect 18 0 33 0;
#X connect 19 0 18 0;
#X connect 20 0 34 0;
#X connect 21 0 22 0;
#X connect 22 0 23 0;
#X connect 23 0 8 0;
#X connect 24 0 31 0;
#X connect 25 0 24 0;
#X connect 26 0 32 0;
#X connect 27 0 26 0;
#X connect 29 0 16 1;
#X connect 30 0 17 1;
#X connect 31 0 21 1;
#X connect 32 0 22 1;
#X connect 33 0 23 1;
#X connect 34 0 16 0;
