#N canvas 100 6 629 502 10;
#X obj 44 71 gemhead;
#X obj 62 195 pix_image;
#X msg 97 148 open azulclaro.tif;
#X obj 643 535 gemwin;
#X msg 621 450 create \, 1;
#X msg 709 511 destroy;
#X obj 597 193 pix_image;
#X obj 75 536 pix_texture;
#X obj 557 84 gemhead;
#X obj 93 420 pix_composite;
#X obj 258 159 pix_image;
#X obj 203 121 gemhead;
#X msg 247 90 open vermelho.tif;
#X obj 251 310 pix_composite;
#X obj 723 220 pix_image;
#X obj 726 75 gemhead;
#X msg 453 139 open verde.tif;
#X obj 435 193 pix_image;
#X obj 433 83 gemhead;
#X obj 367 315 pix_composite;
#X obj 585 269 pix_composite;
#X msg 604 116 open roxo.tif;
#X msg 783 155 open preto.tif;
#X obj 69 568 square 4;
#X msg 794 543 dimen 1920 1080;
#X msg 864 439 fullscreen 1;
#N canvas 1107 297 450 300 recEKP 0;
#X obj 129 60 r processos;
#X floatatom 131 99 5 0 0 0 - - -;
#X obj 95 189 tgl 15 0 empty empty empty 17 7 0 10 -262144 -1 -1 0
1;
#X obj 144 192 tgl 15 0 empty empty empty 17 7 0 10 -262144 -1 -1 0
1;
#X obj 193 190 tgl 15 0 empty empty empty 17 7 0 10 -262144 -1 -1 0
1;
#X obj 76 239 s m1;
#X obj 190 237 s m3;
#X obj 132 239 s m2;
#X obj 137 137 select 1 2 3;
#X connect 0 0 1 0;
#X connect 1 0 8 0;
#X connect 2 0 5 0;
#X connect 3 0 7 0;
#X connect 4 0 6 0;
#X connect 8 0 2 0;
#X connect 8 1 3 0;
#X connect 8 2 4 0;
#X restore 905 482 pd recEKP;
#N canvas 768 564 577 300 receive_osc 0;
#X obj 129 60 r processos;
#X floatatom 131 99 5 0 0 0 - - -;
#X obj 95 189 tgl 15 0 empty empty empty 17 7 0 10 -262144 -1 -1 0
1;
#X obj 144 192 tgl 15 0 empty empty empty 17 7 0 10 -262144 -1 -1 0
1;
#X obj 193 190 tgl 15 0 empty empty empty 17 7 0 10 -262144 -1 -1 0
1;
#X obj 76 239 s m1;
#X obj 190 237 s m3;
#X obj 132 239 s m2;
#X obj 137 137 select 1 2 3;
#X connect 0 0 1 0;
#X connect 1 0 8 0;
#X connect 2 0 5 0;
#X connect 3 0 7 0;
#X connect 4 0 6 0;
#X connect 8 0 2 0;
#X connect 8 1 3 0;
#X connect 8 2 4 0;
#X restore 904 510 pd receive_osc;
#X obj 134 263 rotate 0 0 0 1;
#X obj 133 328 rotate 0 0 1 0;
#X obj 136 373 rotate 0 1 0 0;
#X obj 4 235 r carga_cpu_firefox;
#X obj 4 278 r carga_cpu_gedit;
#X obj 0 337 r carga_cpu_xorg;
#X msg 295 116 open tudopreto.tif;
#X msg 465 55 open tudopreto.tif;
#X msg 593 58 open tudopreto.tif;
#X msg 764 109 open tudopreto.tif;
#X msg 116 97 open tudopreto.tif;
#X obj 44 20 r onM1;
#X obj 144 20 r offM1;
#X obj 244 20 r onM2;
#X obj 334 20 r offM2;
#X obj 620 6 r onM3;
#X obj 520 12 r offM3;
#X obj 173 61 bng 15 250 50 0 empty empty empty 17 7 0 10 -262144 -1
-1;
#X obj 108 46 bng 15 250 50 0 empty empty empty 17 7 0 10 -262144 -1
-1;
#X obj 626 33 bng 15 250 50 0 empty empty empty 17 7 0 10 -262144 -1
-1;
#X obj 503 30 bng 15 250 50 0 empty empty empty 17 7 0 10 -262144 -1
-1;
#X obj 251 51 bng 15 250 50 0 empty empty empty 17 7 0 10 -262144 -1
-1;
#X obj 322 51 bng 15 250 50 0 empty empty empty 17 7 0 10 -262144 -1
-1;
#X floatatom 154 218 5 0 0 0 - - -;
#X obj 265 363 cnv 15 175 215 empty empty empty 20 12 0 14 -106138
-66577 0;
#X obj 255 581 cnv 15 120 25 empty empty empty 20 12 0 14 -24198 -66577
0;
#X floatatom 273 366 5 0 64 1 segments - -;
#X floatatom 288 386 5 0 0 1 sourceAngle - -;
#X obj 258 586 pix_kaleidoscope;
#X floatatom 319 462 5 0 0 1 outputAngle - -;
#X floatatom 365 558 5 0.1 10 1 sap - -;
#X floatatom 349 542 5 0 1 1 rlp - -;
#X obj 334 521 pack;
#X obj 388 521 t b f;
#X floatatom 334 482 4 0 100 0 - - -;
#X floatatom 386 482 4 0 100 0 - - -;
#X obj 334 501 * 0.01;
#X obj 386 501 * 0.01;
#X obj 304 443 pack;
#X obj 358 443 t b f;
#X floatatom 304 404 4 0 100 0 - - -;
#X floatatom 356 404 4 0 100 0 - - -;
#X obj 304 423 * 0.01;
#X obj 356 423 * 0.01;
#X msg 701 468 dimen 800 600;
#X connect 0 0 1 0;
#X connect 1 0 28 0;
#X connect 2 0 1 0;
#X connect 4 0 3 0;
#X connect 5 0 3 0;
#X connect 6 0 20 0;
#X connect 7 0 23 0;
#X connect 8 0 6 0;
#X connect 9 0 56 0;
#X connect 10 0 13 0;
#X connect 11 0 10 0;
#X connect 12 0 10 0;
#X connect 13 0 9 1;
#X connect 14 0 20 1;
#X connect 15 0 14 0;
#X connect 16 0 17 0;
#X connect 17 0 19 0;
#X connect 18 0 17 0;
#X connect 19 0 13 1;
#X connect 20 0 19 1;
#X connect 21 0 6 0;
#X connect 22 0 14 0;
#X connect 24 0 3 0;
#X connect 25 0 3 0;
#X connect 28 0 29 0;
#X connect 29 0 30 0;
#X connect 30 0 9 0;
#X connect 32 0 29 1;
#X connect 33 0 30 1;
#X connect 34 0 10 0;
#X connect 35 0 17 0;
#X connect 36 0 6 0;
#X connect 37 0 14 0;
#X connect 38 0 1 0;
#X connect 39 0 46 0;
#X connect 40 0 45 0;
#X connect 41 0 49 0;
#X connect 42 0 50 0;
#X connect 43 0 47 0;
#X connect 44 0 48 0;
#X connect 45 0 38 0;
#X connect 46 0 2 0;
#X connect 47 0 36 0;
#X connect 48 0 35 0;
#X connect 49 0 12 0;
#X connect 50 0 34 0;
#X connect 51 0 28 1;
#X connect 54 0 56 1;
#X connect 55 0 56 2;
#X connect 56 0 7 0;
#X connect 57 0 56 4;
#X connect 58 0 56 7;
#X connect 59 0 56 6;
#X connect 60 0 56 5;
#X connect 61 0 60 0;
#X connect 61 1 60 1;
#X connect 62 0 64 0;
#X connect 63 0 65 0;
#X connect 64 0 60 0;
#X connect 65 0 61 0;
#X connect 66 0 56 3;
#X connect 67 0 66 0;
#X connect 67 1 66 1;
#X connect 68 0 70 0;
#X connect 69 0 71 0;
#X connect 70 0 66 0;
#X connect 71 0 67 0;
#X connect 72 0 3 0;
